<svg width="139" height="120" viewBox="0 0 139 120" fill="none" xmlns="http://www.w3.org/2000/svg">
<path d="M36.6393 51.4098C36.6393 48.6484 38.8779 46.4098 41.6393 46.4098H107.361C110.122 46.4098 112.361 48.6484 112.361 51.4098V111.688C112.361 116.107 108.779 119.688 104.361 119.688H44.6394C40.2211 119.688 36.6393 116.107 36.6393 111.688V51.4098Z" fill="#FAC390"/>
<path d="M36.6393 51.4098C36.6393 48.6484 38.8779 46.4098 41.6393 46.4098H107.361C110.122 46.4098 112.361 48.6484 112.361 51.4098V111.688C112.361 116.107 108.779 119.688 104.361 119.688H44.6394C40.2211 119.688 36.6393 116.107 36.6393 111.688V51.4098Z" fill="#FAC390"/>
<g filter="url(#filter0_f_47_149)">
<ellipse cx="48" cy="97" rx="11" ry="6" fill="#FF0000" fill-opacity="0.5"/>
</g>
<g filter="url(#filter1_f_47_149)">
<ellipse cx="99" cy="98.5" rx="11" ry="4.5" fill="#FF0000" fill-opacity="0.5"/>
</g>
<g filter="url(#filter2_i_47_149)">
<path d="M36.3477 80.998C21.0314 74.0598 18.5974 59.1533 30.9114 47.7036L37.4035 41.6671C46.132 33.5513 62.0089 30.9589 72.8655 35.8769C83.7221 40.795 85.4474 51.361 76.7189 59.4769L47.9304 86.2449L36.3477 80.998Z" fill="#373633"/>
<path d="M9.06819 65.2204C4.05997 48.3453 14.1595 32.8954 31.6261 30.7119L60.6918 27.0786C69.4251 25.9868 78.5348 31.9418 81.0389 40.3793C83.543 48.8168 78.4933 56.5418 69.76 57.6335L9.06819 65.2204Z" fill="#373633"/>
<path d="M4.9148 31.4404C18.8168 17.6949 44.6671 12.7633 62.6531 20.4253L78.2004 27.0485C87.5999 31.0527 89.3301 40.122 82.065 47.3053C74.7998 54.4887 61.2905 57.066 51.891 53.0618L3.77712 32.5653L4.9148 31.4404Z" fill="#373633"/>
<path d="M56.0327 3.72625C70.2929 1.6683 85.6389 11.0494 90.3088 24.6795L91.1011 26.9918C95.3335 39.3448 88.2876 50.8709 75.3635 52.736C62.4395 54.6011 48.5314 46.099 44.299 33.7461L35.051 6.75422L56.0327 3.72625Z" fill="#373633"/>
<path d="M98.4526 7.69292C113.673 13.7809 116.86 28.3523 105.572 40.239L100.269 45.8235C91.9096 54.626 75.9962 58.1071 64.7252 53.5988C53.4542 49.0904 51.0937 38.2999 59.453 29.4974L85.1953 2.39006L98.4526 7.69292Z" fill="#373633"/>
<path d="M125.841 21.9429C132.323 38.6052 123.276 54.4565 105.632 57.3477L78.0115 61.8739C69.1897 63.3195 59.4108 57.7376 56.1695 49.4065C52.9283 41.0754 57.4522 33.1497 66.274 31.7041L125.841 21.9429Z" fill="#373633"/>
<path d="M138.81 41.729C133.265 58.5332 114.561 70.181 97.0344 67.745L68.4537 63.7728C59.6902 62.5548 54.8335 54.7562 57.606 46.3541C60.3784 37.9519 69.7301 32.1281 78.4935 33.346L138.81 41.729Z" fill="#373633"/>
<path d="M133.758 65.8183C119.094 77.8489 93.5281 80.5792 76.6545 71.9166L63.2164 65.0176C53.7645 60.1652 52.761 50.7684 60.9749 44.0293C69.1888 37.2903 83.5098 35.7609 92.9616 40.6133L136.952 63.1974L133.758 65.8183Z" fill="#373633"/>
<path d="M104.383 86.9298C89.4474 91.5317 69.8597 85.037 60.6325 72.4234L57.3044 67.8738C49.9152 57.7728 53.6209 46.5969 65.5811 42.9117C77.5413 39.2265 93.2271 44.4275 100.616 54.5284L120.652 81.917L104.383 86.9298Z" fill="#373633"/>
</g>
<ellipse cx="62.2869" cy="89.1558" rx="3.66393" ry="6.10656" fill="black"/>
<ellipse cx="86.7131" cy="89.1558" rx="3.66393" ry="6.10656" fill="black"/>
<ellipse cx="37.8606" cy="100.148" rx="13.4344" ry="12.2131" fill="#74B26E"/>
<ellipse cx="108.697" cy="100.148" rx="13.4344" ry="12.2131" fill="#74B26E"/>
<path d="M44.971 95.2623C45.7657 95.2623 46.4397 94.566 45.9982 93.9053C45.7298 93.5036 45.3483 93.1905 44.902 93.0056C44.4556 92.8208 43.9645 92.7724 43.4907 92.8666C42.7113 93.0217 42.6955 93.9906 43.2574 94.5525L43.4613 94.7564C43.7852 95.0804 44.2246 95.2623 44.6826 95.2623H44.971Z" fill="white"/>
<path d="M115.807 95.2623C116.602 95.2623 117.276 94.566 116.834 93.9053C116.566 93.5036 116.184 93.1905 115.738 93.0056C115.292 92.8208 114.801 92.7724 114.327 92.8666C113.547 93.0217 113.532 93.9906 114.093 94.5525L114.297 94.7564C114.621 95.0804 115.061 95.2623 115.519 95.2623H115.807Z" fill="white"/>
<path d="M75.3266 95.2623C75.5446 95.2623 75.7246 95.0845 75.6895 94.8693C75.6592 94.6838 75.6076 94.502 75.5354 94.3276C75.4126 94.0312 75.2327 93.7619 75.0059 93.5351C74.7791 93.3083 74.5098 93.1284 74.2134 93.0056C74.039 92.9334 73.8572 92.8818 73.6717 92.8515C73.4565 92.8165 73.2787 92.9964 73.2787 93.2144C73.2787 93.4325 73.4579 93.6045 73.6697 93.6561C73.7519 93.6761 73.8327 93.7025 73.9113 93.735C74.1119 93.8181 74.2941 93.9399 74.4476 94.0934C74.6011 94.2469 74.7229 94.4291 74.806 94.6297C74.8385 94.7083 74.8649 94.7891 74.8849 94.8713C74.9365 95.0831 75.1086 95.2623 75.3266 95.2623Z" fill="black"/>
<path d="M75.3266 95.2623C75.5446 95.2623 75.7246 95.0845 75.6895 94.8693C75.6592 94.6838 75.6076 94.502 75.5354 94.3276C75.4126 94.0312 75.2327 93.7619 75.0059 93.5351C74.7791 93.3083 74.5098 93.1284 74.2134 93.0056C74.039 92.9334 73.8572 92.8818 73.6717 92.8515C73.4565 92.8165 73.2787 92.9964 73.2787 93.2144C73.2787 93.4325 73.4579 93.6045 73.6697 93.6561C73.7519 93.6761 73.8327 93.7025 73.9113 93.735C74.1119 93.8181 74.2941 93.9399 74.4476 94.0934C74.6011 94.2469 74.7229 94.4291 74.806 94.6297C74.8385 94.7083 74.8649 94.7891 74.8849 94.8713C74.9365 95.0831 75.1086 95.2623 75.3266 95.2623Z" fill="black"/>
<path d="M70.5925 103.67C70.1227 104.126 70.1077 104.894 70.6778 105.215C70.9616 105.375 71.2678 105.505 71.5933 105.603C72.3178 105.821 73.1235 105.876 73.9643 105.765C74.8051 105.654 75.6646 105.379 76.4938 104.956C77.0694 104.663 77.6226 104.302 78.1384 103.884C78.5162 103.578 78.5224 103.018 78.1841 102.669C77.8457 102.32 77.2916 102.317 76.901 102.606C76.6177 102.816 76.32 103.001 76.0128 103.158C75.4516 103.444 74.8699 103.63 74.3009 103.705C73.7318 103.78 73.1865 103.743 72.6962 103.595C72.6022 103.567 72.5106 103.535 72.4215 103.499C71.8149 103.253 71.0623 103.215 70.5925 103.67Z" fill="black"/>
<path d="M70.5925 103.67C70.1227 104.126 70.1077 104.894 70.6778 105.215C70.9616 105.375 71.2678 105.505 71.5933 105.603C72.3178 105.821 73.1235 105.876 73.9643 105.765C74.8051 105.654 75.6646 105.379 76.4938 104.956C77.0694 104.663 77.6226 104.302 78.1384 103.884C78.5162 103.578 78.5224 103.018 78.1841 102.669C77.8457 102.32 77.2916 102.317 76.901 102.606C76.6177 102.816 76.32 103.001 76.0128 103.158C75.4516 103.444 74.8699 103.63 74.3009 103.705C73.7318 103.78 73.1865 103.743 72.6962 103.595C72.6022 103.567 72.5106 103.535 72.4215 103.499C71.8149 103.253 71.0623 103.215 70.5925 103.67Z" fill="black"/>
<path d="M31.5106 91.4572C31.0408 91.9128 31.0258 92.6807 31.5959 93.0021C31.8797 93.162 32.1859 93.2918 32.5114 93.3897C33.2359 93.6075 34.0415 93.6625 34.8824 93.5516C35.7232 93.4407 36.5827 93.1659 37.4119 92.7431C37.9875 92.4496 38.5407 92.0887 39.0565 91.6711C39.4343 91.3652 39.4405 90.8045 39.1022 90.4556C38.7638 90.1067 38.2097 90.1038 37.8191 90.393C37.5358 90.6028 37.2381 90.7877 36.9309 90.9444C36.3697 91.2305 35.788 91.4165 35.219 91.4915C34.6499 91.5666 34.1046 91.5294 33.6143 91.382C33.5203 91.3537 33.4287 91.3215 33.3396 91.2855C32.733 91.04 31.9804 91.0017 31.5106 91.4572Z" fill="black"/>
<path d="M104.789 91.4572C104.319 91.9128 104.304 92.6807 104.875 93.0021C105.158 93.162 105.465 93.2918 105.79 93.3897C106.515 93.6075 107.32 93.6625 108.161 93.5516C109.002 93.4407 109.861 93.1659 110.691 92.7431C111.266 92.4496 111.819 92.0887 112.335 91.6711C112.713 91.3652 112.719 90.8045 112.381 90.4556C112.042 90.1067 111.488 90.1038 111.098 90.393C110.814 90.6028 110.517 90.7877 110.21 90.9444C109.648 91.2305 109.067 91.4165 108.498 91.4915C107.929 91.5666 107.383 91.5294 106.893 91.382C106.799 91.3537 106.707 91.3215 106.618 91.2855C106.012 91.04 105.259 91.0017 104.789 91.4572Z" fill="black"/>
<path d="M33.1017 86.8456C33.0291 85.7579 34.3729 85.1929 35.0994 86.0055C35.2047 86.1234 35.2846 86.2618 35.3338 86.412L36.7435 90.709C36.87 91.0943 36.6794 91.5121 36.3056 91.6693C35.9317 91.8265 35.4999 91.6704 35.3129 91.3106L33.2282 87.2975C33.1553 87.1572 33.1122 87.0033 33.1017 86.8456Z" fill="#2B5427"/>
<path d="M109.221 86.137C109.815 85.2236 111.229 85.5783 111.322 86.6644C111.336 86.8219 111.317 86.9805 111.266 87.1303L109.814 91.4131C109.684 91.7971 109.28 92.0169 108.887 91.9182C108.494 91.8195 108.242 91.4354 108.309 91.0354L109.05 86.5743C109.076 86.4184 109.134 86.2695 109.221 86.137Z" fill="#2B5427"/>
<defs>
<filter id="filter0_f_47_149" x="33" y="87" width="30" height="20" filterUnits="userSpaceOnUse" color-interpolation-filters="sRGB">
<feFlood flood-opacity="0" result="BackgroundImageFix"/>
<feBlend mode="normal" in="SourceGraphic" in2="BackgroundImageFix" result="shape"/>
<feGaussianBlur stdDeviation="2" result="effect1_foregroundBlur_47_149"/>
</filter>
<filter id="filter1_f_47_149" x="84" y="90" width="30" height="17" filterUnits="userSpaceOnUse" color-interpolation-filters="sRGB">
<feFlood flood-opacity="0" result="BackgroundImageFix"/>
<feBlend mode="normal" in="SourceGraphic" in2="BackgroundImageFix" result="shape"/>
<feGaussianBlur stdDeviation="2" result="effect1_foregroundBlur_47_149"/>
</filter>
<filter id="filter2_i_47_149" x="3.7771" y="2.39001" width="135.032" height="92.0189" filterUnits="userSpaceOnUse" color-interpolation-filters="sRGB">
<feFlood flood-opacity="0" result="BackgroundImageFix"/>
<feBlend mode="normal" in="SourceGraphic" in2="BackgroundImageFix" result="shape"/>
<feColorMatrix in="SourceAlpha" type="matrix" values="0 0 0 0 0 0 0 0 0 0 0 0 0 0 0 0 0 0 127 0" result="hardAlpha"/>
<feOffset dy="6"/>
<feGaussianBlur stdDeviation="4.45"/>
<feComposite in2="hardAlpha" operator="arithmetic" k2="-1" k3="1"/>
<feColorMatrix type="matrix" values="0 0 0 0 0.0633334 0 0 0 0 0.0561028 0 0 0 0 0.0561028 0 0 0 0.48 0"/>
<feBlend mode="normal" in2="shape" result="effect1_innerShadow_47_149"/>
</filter>
</defs>
</svg>
