<svg width="139" height="118" viewBox="0 0 139 118" fill="none" xmlns="http://www.w3.org/2000/svg">
<path d="M38.9946 53.5886C38.9946 50.8272 41.2332 48.5886 43.9946 48.5886H105.103C107.864 48.5886 110.103 50.8272 110.103 53.5886V110C110.103 114.418 106.521 118 102.103 118H46.9946C42.5763 118 38.9946 114.418 38.9946 110V53.5886Z" fill="#FFB36C"/>
<path d="M38.9946 53.5886C38.9946 50.8272 41.2332 48.5886 43.9946 48.5886H105.103C107.864 48.5886 110.103 50.8272 110.103 53.5886V110C110.103 114.418 106.521 118 102.103 118H46.9946C42.5763 118 38.9946 114.418 38.9946 110V53.5886Z" fill="#FFB36C"/>
<g filter="url(#filter0_f_47_107)">
<ellipse cx="47.0229" cy="99.4905" rx="10.3221" ry="11.5686" fill="#FF0000" fill-opacity="0.5"/>
</g>
<g filter="url(#filter1_f_47_107)">
<ellipse cx="99.7804" cy="99.4905" rx="10.3221" ry="11.5686" fill="#FF0000" fill-opacity="0.5"/>
</g>
<g filter="url(#filter2_i_47_107)">
<path d="M35.2846 78.9699C20.8647 72.381 18.5494 58.2477 30.1131 47.4022L36.2474 41.6489C44.4233 33.9808 59.3159 31.5411 69.5111 36.1996C79.7063 40.8581 81.3433 50.8507 73.1675 58.5188L46.0952 83.9096L35.2846 78.9699Z" fill="#2C54BB"/>
<path d="M18.3292 68.1235C8.20626 55.467 11.4119 38.6967 25.4892 30.666L49.2772 17.0958C56.8683 12.7653 67.4472 14.7875 72.9059 21.6124C77.8264 27.7645 76.2682 35.9161 69.4255 39.8196L19.4385 68.3356C19.0821 68.5389 18.5855 68.444 18.3292 68.1235Z" fill="#2C54BB"/>
<path d="M27.5202 21.8429C33.6678 9.77942 49.1678 3.1429 62.1405 7.01985L64.21 7.63836C76.0397 11.1737 81.085 22.9575 75.4791 33.9581C69.8732 44.9587 55.7388 51.0105 43.9091 47.4751L18.3505 39.8367L27.5202 21.8429Z" fill="#2C54BB"/>
<path d="M112.843 18.4725C127.184 24.2586 130.217 38.0768 119.616 49.3362C109.016 60.5957 88.7968 65.0326 74.4558 59.2465L73.1493 58.7194C58.0867 52.6421 54.9018 38.1286 66.0356 26.3027L84.2635 6.94149L112.843 18.4725Z" fill="#2C54BB"/>
<path d="M134.94 44.1543C129.733 60.0717 112.067 71.0905 95.4815 68.7654L68.9849 65.0508C60.6923 63.8882 56.0803 56.494 58.6838 48.5353C61.2874 40.5766 70.1204 35.0672 78.4131 36.2297L134.94 44.1543Z" fill="#2C54BB"/>
<path d="M130.154 67.0069C116.407 78.3835 92.4174 80.9542 76.5719 72.7487L63.9795 66.2278C55.0886 61.6237 54.1341 52.7166 61.8476 46.3332C69.5611 39.9497 83.0216 38.5073 91.9125 43.1114L133.196 64.4897L130.154 67.0069Z" fill="#2C54BB"/>
<path d="M100.481 80.3688C86.3867 84.7492 67.9367 78.6146 59.2716 66.6666L56.0849 62.2725C49.1799 52.7513 52.6872 42.2031 63.9187 38.7124C75.1503 35.2216 89.8529 40.1103 96.7579 49.6315L115.634 75.6592L100.481 80.3688Z" fill="#2C54BB"/>
</g>
<ellipse cx="63.0796" cy="89.0787" rx="3.4407" ry="5.7843" fill="black"/>
<ellipse cx="86.0176" cy="89.0787" rx="3.4407" ry="5.7843" fill="black"/>
<ellipse cx="40.1415" cy="99.4905" rx="12.6159" ry="11.5686" fill="#C92E2E"/>
<ellipse cx="106.662" cy="99.4905" rx="12.6159" ry="11.5686" fill="#C92E2E"/>
<path d="M46.8083 94.863C47.5603 94.863 48.1986 94.2045 47.7833 93.5776C47.5313 93.1971 47.173 92.9006 46.7539 92.7254C46.3347 92.5503 45.8735 92.5045 45.4286 92.5938C44.6936 92.7412 44.6796 93.6561 45.2073 94.1885L45.401 94.3839C45.7051 94.6905 46.119 94.863 46.5508 94.863H46.8083Z" fill="#FFB36C"/>
<path d="M113.329 94.863C114.081 94.863 114.719 94.2045 114.304 93.5776C114.052 93.1971 113.693 92.9006 113.274 92.7254C112.855 92.5503 112.394 92.5045 111.949 92.5938C111.214 92.7412 111.2 93.6561 111.728 94.1885L111.921 94.3839C112.225 94.6905 112.639 94.863 113.071 94.863H113.329Z" fill="#FFB36C"/>
<path d="M75.3248 94.863C75.5296 94.863 75.6985 94.696 75.6661 94.4939C75.6378 94.3171 75.5892 94.1438 75.5209 93.9776C75.4056 93.6969 75.2367 93.4418 75.0237 93.227C74.8107 93.0121 74.5578 92.8417 74.2795 92.7254C74.1167 92.6574 73.947 92.6087 73.7739 92.58C73.5702 92.5462 73.4017 92.7167 73.4017 92.9232C73.4017 93.1297 73.5715 93.2927 73.772 93.3423C73.8481 93.3612 73.923 93.3859 73.9958 93.4163C74.1841 93.495 74.3553 93.6104 74.4994 93.7558C74.6436 93.9012 74.7579 94.0738 74.836 94.2638C74.8669 94.3392 74.8919 94.4168 74.9108 94.4957C74.9585 94.6948 75.1201 94.863 75.3248 94.863Z" fill="black"/>
<path d="M75.3248 94.863C75.5296 94.863 75.6985 94.696 75.6661 94.4939C75.6378 94.3171 75.5892 94.1438 75.5209 93.9776C75.4056 93.6969 75.2367 93.4418 75.0237 93.227C74.8107 93.0121 74.5578 92.8417 74.2795 92.7254C74.1167 92.6574 73.947 92.6087 73.7739 92.58C73.5702 92.5462 73.4017 92.7167 73.4017 92.9232C73.4017 93.1297 73.5715 93.2927 73.772 93.3423C73.8481 93.3612 73.923 93.3859 73.9958 93.4163C74.1841 93.495 74.3553 93.6104 74.4994 93.7558C74.6436 93.9012 74.7579 94.0738 74.836 94.2638C74.8669 94.3392 74.8919 94.4168 74.9108 94.4957C74.9585 94.6948 75.1201 94.863 75.3248 94.863Z" fill="black"/>
<path d="M70.8792 102.827C70.438 103.259 70.4238 103.986 70.9591 104.291C71.2256 104.442 71.5133 104.565 71.819 104.658C72.4994 104.864 73.2559 104.916 74.0455 104.811C74.8351 104.706 75.6423 104.446 76.4209 104.045C76.9615 103.767 77.4809 103.426 77.9652 103.03C78.32 102.74 78.326 102.209 78.0082 101.879C77.6905 101.548 77.1701 101.545 76.8032 101.819C76.5372 102.018 76.2577 102.193 75.9693 102.342C75.4423 102.613 74.896 102.789 74.3616 102.86C73.8272 102.931 73.3152 102.896 72.8547 102.756C72.7664 102.729 72.6803 102.699 72.5965 102.665C72.027 102.432 71.3204 102.396 70.8792 102.827Z" fill="black"/>
<path d="M70.8792 102.827C70.438 103.259 70.4238 103.986 70.9591 104.291C71.2256 104.442 71.5133 104.565 71.819 104.658C72.4994 104.864 73.2559 104.916 74.0455 104.811C74.8351 104.706 75.6423 104.446 76.4209 104.045C76.9615 103.767 77.4809 103.426 77.9652 103.03C78.32 102.74 78.326 102.209 78.0082 101.879C77.6905 101.548 77.1701 101.545 76.8032 101.819C76.5372 102.018 76.2577 102.193 75.9693 102.342C75.4423 102.613 74.896 102.789 74.3616 102.86C73.8272 102.931 73.3152 102.896 72.8547 102.756C72.7664 102.729 72.6803 102.699 72.5965 102.665C72.027 102.432 71.3204 102.396 70.8792 102.827Z" fill="black"/>
<defs>
<filter id="filter0_f_47_107" x="32.7008" y="83.9219" width="28.6442" height="31.1372" filterUnits="userSpaceOnUse" color-interpolation-filters="sRGB">
<feFlood flood-opacity="0" result="BackgroundImageFix"/>
<feBlend mode="normal" in="SourceGraphic" in2="BackgroundImageFix" result="shape"/>
<feGaussianBlur stdDeviation="2" result="effect1_foregroundBlur_47_107"/>
</filter>
<filter id="filter1_f_47_107" x="85.4583" y="83.9219" width="28.6442" height="31.1372" filterUnits="userSpaceOnUse" color-interpolation-filters="sRGB">
<feFlood flood-opacity="0" result="BackgroundImageFix"/>
<feBlend mode="normal" in="SourceGraphic" in2="BackgroundImageFix" result="shape"/>
<feGaussianBlur stdDeviation="2" result="effect1_foregroundBlur_47_107"/>
</filter>
<filter id="filter2_i_47_107" x="12.4208" y="5.91333" width="122.519" height="83.9962" filterUnits="userSpaceOnUse" color-interpolation-filters="sRGB">
<feFlood flood-opacity="0" result="BackgroundImageFix"/>
<feBlend mode="normal" in="SourceGraphic" in2="BackgroundImageFix" result="shape"/>
<feColorMatrix in="SourceAlpha" type="matrix" values="0 0 0 0 0 0 0 0 0 0 0 0 0 0 0 0 0 0 127 0" result="hardAlpha"/>
<feOffset dy="6"/>
<feGaussianBlur stdDeviation="4.45"/>
<feComposite in2="hardAlpha" operator="arithmetic" k2="-1" k3="1"/>
<feColorMatrix type="matrix" values="0 0 0 0 0 0 0 0 0 0.1105 0 0 0 0 0.39 0 0 0 1 0"/>
<feBlend mode="normal" in2="shape" result="effect1_innerShadow_47_107"/>
</filter>
</defs>
</svg>
