<svg width="139" height="126" viewBox="0 0 139 126" fill="none" xmlns="http://www.w3.org/2000/svg">
<path d="M121.666 94.406C102.453 88.8348 86.191 68.1156 85.3448 48.1285L85.2398 45.6466C84.9154 37.9857 90.6226 33.5063 97.9871 35.6418L106.715 38.1726C117.607 41.331 126.826 53.0769 127.306 64.4079L128.354 89.1572C128.524 93.1764 125.53 95.5264 121.666 94.406Z" fill="#483A2E"/>
<path d="M22.6679 92.1363C41.8815 86.565 58.1431 65.8458 58.9893 45.8588L59.0943 43.3768C59.4187 35.7159 53.7115 31.2366 46.347 33.372L37.6192 35.9028C26.7267 39.0612 17.5078 50.8072 17.0281 62.1381L15.9804 86.8875C15.8102 90.9066 18.8043 93.2566 22.6679 92.1363Z" fill="#483A2E"/>
<path d="M129.988 123.909C109.962 125.064 87.32 111.054 79.4157 92.6178L78.395 90.2371C75.3576 83.1523 79.1338 77.0493 86.8294 76.6055L95.8907 76.083C107.244 75.4283 120.08 83.3705 124.561 93.8224L134.402 116.776C135.991 120.483 134.015 123.677 129.988 123.909Z" fill="#483A2E"/>
<path d="M14.3459 121.639C34.372 122.794 57.0141 108.785 64.9184 90.3483L65.9391 87.9675C68.9765 80.8828 65.2003 74.7798 57.5048 74.336L48.4434 73.8135C37.0903 73.1588 24.2542 81.101 19.7732 91.5528L9.93231 114.506C8.34287 118.214 10.3189 121.407 14.3459 121.639Z" fill="#483A2E"/>
<path d="M32.9204 45.9022C32.9204 43.1408 35.159 40.9022 37.9204 40.9022H100.816C103.577 40.9022 105.816 43.1408 105.816 45.9022V100.991C105.816 105.409 102.234 108.991 97.8156 108.991H40.9204C36.5021 108.991 32.9204 105.409 32.9204 100.991V45.9022Z" fill="white"/>
<path d="M32.9204 45.9022C32.9204 43.1408 35.159 40.9022 37.9204 40.9022H100.816C103.577 40.9022 105.816 43.1408 105.816 45.9022V100.991C105.816 105.409 102.234 108.991 97.8156 108.991H40.9204C36.5021 108.991 32.9204 105.409 32.9204 100.991V45.9022Z" fill="#FCD5B0"/>
<g filter="url(#filter0_f_47_150)">
<ellipse cx="42.3263" cy="89.6504" rx="14.1088" ry="5.67408" fill="#FF0000" fill-opacity="0.5"/>
</g>
<path d="M33.3978 81.382C34.562 77.8459 39.316 77.1676 41.4905 80.2272C42.3431 81.4269 43.735 82.1467 45.2027 82.1375L45.4179 82.1362C49.0928 82.1132 51.189 86.3545 48.9144 89.2105C47.9964 90.3631 47.7355 91.9138 48.2182 93.3168C49.4103 96.7816 46.1216 100.09 42.6473 98.8989L42.3159 98.7853C40.9129 98.3044 39.3701 98.5246 38.1713 99.3768L37.8881 99.578C34.9195 101.688 30.7797 99.4401 30.8821 95.7906C30.9235 94.3128 30.2089 92.9013 28.9846 92.0544C25.9511 89.9559 26.6862 85.3106 30.2107 84.3062L30.4171 84.2474C31.8248 83.8463 32.9414 82.7685 33.3978 81.382Z" fill="white"/>
<g filter="url(#filter1_f_47_150)">
<ellipse cx="92.8826" cy="89.6504" rx="10.5816" ry="5.67408" fill="#FF0000" fill-opacity="0.5"/>
</g>
<path d="M101.083 79.987C103.69 77.2698 108.297 78.6095 108.915 82.2647C109.158 83.7012 110.104 84.925 111.442 85.5216L111.612 85.5977C114.961 87.0917 114.999 91.7888 111.675 93.4428C110.336 94.1093 109.417 95.4019 109.236 96.8673C108.787 100.494 104.334 102.124 101.705 99.611L101.487 99.4028C100.428 98.3895 98.9293 97.9539 97.4659 98.2334L97.1652 98.2909C93.5353 98.9843 90.7565 95.2504 92.4582 91.9886C93.1459 90.6705 93.1199 89.1032 92.3848 87.8334C90.5607 84.6824 93.2803 80.7871 96.9272 81.3274L97.1128 81.355C98.5692 81.5707 100.058 81.0549 101.083 79.987Z" fill="white"/>
<g filter="url(#filter2_i_47_150)">
<path d="M67.2567 28.1025C81.6374 34.9976 83.3725 48.8751 71.1322 59.0987L64.8058 64.3827C56.0594 71.688 40.6389 73.616 30.3632 68.6891C20.0874 63.7621 18.8476 53.8459 27.594 46.5406L53.5154 24.8902C54.9337 23.7055 57.4343 23.3929 59.1007 24.1919L67.2567 28.1025Z" fill="#483A2E"/>
<path d="M12.9913 66.2618C5.81642 56.1994 9.12649 43.9098 20.3846 38.8121L42.3287 28.8759C49.8659 25.4631 59.87 28.1576 64.6736 34.8943C69.4771 41.6309 67.261 49.8587 59.7238 53.2715L24.3052 69.309C20.4889 71.0371 15.4235 69.6727 12.9913 66.2618Z" fill="#483A2E"/>
<path d="M20.635 24.7773C29.7199 16.1071 46.5003 12.9501 58.115 17.7257L69.6109 22.4526C78.5524 26.1291 80.1311 34.5204 73.1372 41.195C66.1432 47.8696 53.2249 50.3001 44.2834 46.6235L23.1069 37.9163C16.8387 35.3389 15.7319 29.4564 20.635 24.7773Z" fill="#483A2E"/>
<path d="M55.1874 2.84671C66.4744 1.27452 78.7148 8.70603 82.527 19.4455L82.7535 20.0837C86.4407 30.4706 80.58 40.1236 69.6634 41.6442C55.6966 43.5897 40.5501 34.3938 35.8328 21.1046L34.9171 18.525C32.5157 11.76 36.3327 5.47303 43.4426 4.48267L55.1874 2.84671Z" fill="#483A2E"/>
<path d="M92.0366 4.77672C106.904 10.5167 109.896 24.3794 98.7184 35.7398L94.3743 40.1551C86.2171 48.4459 70.8084 51.7711 59.9581 47.582C49.1077 43.393 46.9245 33.276 55.0817 24.9852L72.0508 7.73813C76.2556 3.46451 84.1982 1.7505 89.7911 3.90981L92.0366 4.77672Z" fill="#483A2E"/>
<path d="M126.998 25.7652C130.534 34.5385 125.827 42.8486 116.484 44.3263L78.645 50.3112C68.7233 51.8805 57.6358 45.5999 53.8804 36.2832C51.3953 30.1177 54.7033 24.2777 61.2692 23.2392L109.165 15.6637C116.31 14.5336 124.294 19.0563 126.998 25.7652Z" fill="#483A2E"/>
<path d="M125.965 52.0924C123.561 59.1239 115.642 64.0232 108.277 63.0351L63.0785 56.9719C54.901 55.8749 50.4356 48.6568 53.1045 40.8497C55.7735 33.0427 64.5662 27.6031 72.7436 28.7001L115 34.3687C123.99 35.5746 128.899 43.5098 125.965 52.0924Z" fill="#483A2E"/>
<path d="M118.692 65.05C108.841 72.8516 91.726 74.6528 80.4659 69.0732L57.8985 57.8906C49.1347 53.548 48.2461 45.1052 55.9139 39.0331C64.0608 32.5816 78.2138 31.0921 87.5254 35.7061L117.149 50.3852C123.964 53.7624 124.655 60.328 118.692 65.05Z" fill="#483A2E"/>
<path d="M112.666 68.6256C94.3246 76.4702 68.2272 71.1911 54.3762 56.8345L52.1284 54.5046C46.7149 48.8934 48.1378 41.8591 55.3066 38.7931L63.3877 35.3369C73.786 30.8897 88.5809 33.8824 96.4332 42.0214L114.302 60.5421C117.087 63.429 116.355 67.0481 112.666 68.6256Z" fill="#483A2E"/>
<path d="M118.811 76.1395C106.109 74.031 94.065 62.0309 91.9105 49.3366L88.7231 30.5557C87.7737 24.9615 91.5417 21.1797 97.1394 22.1089L100.29 22.6319C116.7 25.3558 132.259 40.8585 135.042 57.2581L135.418 59.4721C137.291 70.5107 129.856 77.9729 118.811 76.1395Z" fill="#483A2E"/>
</g>
<ellipse cx="57.6107" cy="80.6207" rx="3.52719" ry="5.67408" fill="black"/>
<ellipse cx="81.1253" cy="80.6207" rx="3.52719" ry="5.67408" fill="black"/>
<path d="M45.687 86.2459C46.4282 86.2459 47.0548 85.5945 46.6329 84.985C46.3745 84.6118 46.0072 84.3209 45.5776 84.1491C45.1479 83.9773 44.6751 83.9324 44.2189 84.0199C43.4817 84.1615 43.4633 85.0738 44.0034 85.5951L44.2113 85.7958C44.5105 86.0846 44.9101 86.2459 45.3259 86.2459H45.687Z" fill="white"/>
<path d="M111.528 90.7851C112.269 90.7851 112.896 90.1337 112.474 89.5242C112.215 89.151 111.848 88.8601 111.418 88.6883C110.989 88.5165 110.516 88.4715 110.06 88.5591C109.323 88.7007 109.304 89.613 109.844 90.1343L110.052 90.335C110.351 90.6238 110.751 90.7851 111.167 90.7851H111.528Z" fill="white"/>
<path d="M70.1638 86.2947C70.3737 86.2947 70.5471 86.1233 70.5109 85.9165C70.4816 85.7487 70.4326 85.5841 70.3648 85.4261C70.2466 85.1507 70.0734 84.9005 69.8551 84.6898C69.6367 84.479 69.3775 84.3118 69.0922 84.1978C68.9202 84.129 68.7408 84.0804 68.5577 84.0526C68.3575 84.0222 68.1923 84.1892 68.1923 84.3918C68.1923 84.5944 68.3585 84.7545 68.5561 84.7993C68.6397 84.8182 68.7217 84.8437 68.8014 84.8755C68.9944 84.9527 69.1699 85.0659 69.3177 85.2085C69.4654 85.3511 69.5827 85.5205 69.6626 85.7068C69.6923 85.7758 69.7166 85.8467 69.7354 85.9188C69.7885 86.1218 69.9539 86.2947 70.1638 86.2947Z" fill="black"/>
<path d="M70.1638 86.2947C70.3737 86.2947 70.5471 86.1233 70.5109 85.9165C70.4816 85.7487 70.4326 85.5841 70.3648 85.4261C70.2466 85.1507 70.0734 84.9005 69.8551 84.6898C69.6367 84.479 69.3775 84.3118 69.0922 84.1978C68.9202 84.129 68.7408 84.0804 68.5577 84.0526C68.3575 84.0222 68.1923 84.1892 68.1923 84.3918C68.1923 84.5944 68.3585 84.7545 68.5561 84.7993C68.6397 84.8182 68.7217 84.8437 68.8014 84.8755C68.9944 84.9527 69.1699 85.0659 69.3177 85.2085C69.4654 85.3511 69.5827 85.5205 69.6626 85.7068C69.6923 85.7758 69.7166 85.8467 69.7354 85.9188C69.7885 86.1218 69.9539 86.2947 70.1638 86.2947Z" fill="black"/>
<path d="M65.6064 94.1074C65.1541 94.5307 65.1401 95.2447 65.6896 95.5434C65.9624 95.6917 66.2569 95.8122 66.5699 95.903C67.2673 96.1054 68.0429 96.1565 68.8523 96.0534C69.6618 95.9503 70.4892 95.6951 71.2874 95.3022C71.8419 95.0293 72.3747 94.6938 72.8714 94.3055C73.2346 94.0216 73.2404 93.5009 72.9146 93.1767C72.5889 92.8525 72.0558 92.8495 71.6802 93.118C71.4072 93.3131 71.1204 93.4852 70.8244 93.6309C70.2842 93.8967 69.7242 94.0695 69.1764 94.1393C68.6285 94.209 68.1036 94.1744 67.6316 94.0375C67.5415 94.0113 67.4537 93.9815 67.3683 93.9482C66.7836 93.7202 66.0587 93.6841 65.6064 94.1074Z" fill="black"/>
<path d="M65.6064 94.1074C65.1541 94.5307 65.1401 95.2447 65.6896 95.5434C65.9624 95.6917 66.2569 95.8122 66.5699 95.903C67.2673 96.1054 68.0429 96.1565 68.8523 96.0534C69.6618 95.9503 70.4892 95.6951 71.2874 95.3022C71.8419 95.0293 72.3747 94.6938 72.8714 94.3055C73.2346 94.0216 73.2404 93.5009 72.9146 93.1767C72.5889 92.8525 72.0558 92.8495 71.6802 93.118C71.4072 93.3131 71.1204 93.4852 70.8244 93.6309C70.2842 93.8967 69.7242 94.0695 69.1764 94.1393C68.6285 94.209 68.1036 94.1744 67.6316 94.0375C67.5415 94.0113 67.4537 93.9815 67.3683 93.9482C66.7836 93.7202 66.0587 93.6841 65.6064 94.1074Z" fill="black"/>
<path d="M101.537 53.3961C101.68 51.5939 104.32 51.5939 104.463 53.3961L104.526 54.1881C104.584 54.9107 105.16 55.4832 105.883 55.5358C107.699 55.668 107.699 58.332 105.883 58.4642C105.16 58.5168 104.584 59.0893 104.526 59.8119L104.463 60.6039C104.32 62.4061 101.68 62.4061 101.537 60.6039L101.474 59.8119C101.416 59.0893 100.84 58.5168 100.117 58.4642C98.3015 58.332 98.3015 55.668 100.117 55.5358C100.84 55.4832 101.416 54.9107 101.474 54.1881L101.537 53.3961Z" fill="white"/>
<path d="M109.536 45.8168C109.677 44.0112 112.323 44.0112 112.464 45.8168L112.529 46.6524C112.585 47.3752 113.16 47.9488 113.883 48.0026L114.333 48.036C116.145 48.1709 116.145 50.8291 114.333 50.964L113.883 50.9974C113.16 51.0512 112.585 51.6248 112.529 52.3476L112.464 53.1832C112.323 54.9888 109.677 54.9888 109.536 53.1832L109.471 52.3476C109.415 51.6248 108.84 51.0512 108.117 50.9974L107.667 50.964C105.855 50.8291 105.855 48.1709 107.667 48.036L108.117 48.0026C108.84 47.9488 109.415 47.3752 109.471 46.6524L109.536 45.8168Z" fill="white"/>
<line y1="-1.5" x2="19.7647" y2="-1.5" transform="matrix(0.594863 0.803827 -0.8233 0.567607 23.5146 47.6622)" stroke="white" stroke-width="3"/>
<line y1="-1.5" x2="19.7647" y2="-1.5" transform="matrix(0.594863 0.803827 -0.8233 0.567607 28.2175 45.3927)" stroke="white" stroke-width="3"/>
<ellipse cx="38.799" cy="89.6504" rx="3.52719" ry="3.40445" fill="#F0B411"/>
<ellipse cx="102.288" cy="89.6504" rx="3.52719" ry="3.40445" fill="#F0B411"/>
<defs>
<filter id="filter0_f_47_150" x="24.2175" y="79.9763" width="36.2175" height="19.3481" filterUnits="userSpaceOnUse" color-interpolation-filters="sRGB">
<feFlood flood-opacity="0" result="BackgroundImageFix"/>
<feBlend mode="normal" in="SourceGraphic" in2="BackgroundImageFix" result="shape"/>
<feGaussianBlur stdDeviation="2" result="effect1_foregroundBlur_47_150"/>
</filter>
<filter id="filter1_f_47_150" x="78.301" y="79.9763" width="29.1631" height="19.3481" filterUnits="userSpaceOnUse" color-interpolation-filters="sRGB">
<feFlood flood-opacity="0" result="BackgroundImageFix"/>
<feBlend mode="normal" in="SourceGraphic" in2="BackgroundImageFix" result="shape"/>
<feGaussianBlur stdDeviation="2" result="effect1_foregroundBlur_47_150"/>
</filter>
<filter id="filter2_i_47_150" x="9.20044" y="2.63684" width="126.506" height="79.7797" filterUnits="userSpaceOnUse" color-interpolation-filters="sRGB">
<feFlood flood-opacity="0" result="BackgroundImageFix"/>
<feBlend mode="normal" in="SourceGraphic" in2="BackgroundImageFix" result="shape"/>
<feColorMatrix in="SourceAlpha" type="matrix" values="0 0 0 0 0 0 0 0 0 0 0 0 0 0 0 0 0 0 127 0" result="hardAlpha"/>
<feOffset dy="6"/>
<feGaussianBlur stdDeviation="4.45"/>
<feComposite in2="hardAlpha" operator="arithmetic" k2="-1" k3="1"/>
<feColorMatrix type="matrix" values="0 0 0 0 0.183333 0 0 0 0 0.146178 0 0 0 0 0.113667 0 0 0 1 0"/>
<feBlend mode="normal" in2="shape" result="effect1_innerShadow_47_150"/>
</filter>
</defs>
</svg>
