<svg width="139" height="122" viewBox="0 0 139 122" fill="none" xmlns="http://www.w3.org/2000/svg">
<path d="M28.9033 50.7843C28.9033 48.0229 31.1419 45.7843 33.9033 45.7843H105.358C108.12 45.7843 110.358 48.0229 110.358 50.7843V114C110.358 118.419 106.777 122 102.358 122H36.9033C32.485 122 28.9033 118.419 28.9033 114V50.7843Z" fill="white"/>
<path d="M28.9033 50.7843C28.9033 48.0229 31.1419 45.7843 33.9033 45.7843H105.358C108.12 45.7843 110.358 48.0229 110.358 50.7843V114C110.358 118.419 106.777 122 102.358 122H36.9033C32.485 122 28.9033 118.419 28.9033 114V50.7843Z" fill="#FFA14A"/>
<g filter="url(#filter0_f_47_28)">
<ellipse cx="41" cy="101.5" rx="12" ry="8.5" fill="#FF0000" fill-opacity="0.5"/>
</g>
<g filter="url(#filter1_f_47_28)">
<ellipse cx="98.5" cy="102.5" rx="11.5" ry="9.5" fill="#FF0000" fill-opacity="0.5"/>
</g>
<g filter="url(#filter2_i_47_28)">
<path d="M29.5429 78.9841C13.2268 71.8378 10.7383 56.3907 23.9847 44.482L30.8017 38.3535C40.2832 29.8295 57.4369 27.0661 69.1156 32.1813C80.7943 37.2964 82.5755 48.3531 73.094 56.8771L45.0763 82.0654C43.5388 83.4477 40.7571 83.8958 38.8632 83.0663L29.5429 78.9841Z" fill="#C92E2E"/>
<path d="M7.28526 54.9394C3.26172 41.8314 11.0352 29.8714 24.6478 28.2261L52.0547 24.9136C61.1682 23.8121 70.7399 30.0333 73.4336 38.809C76.1273 47.5847 70.9231 55.5918 61.8095 56.6933L18.11 61.9751C13.4956 62.5328 8.64917 59.3828 7.28526 54.9394Z" fill="#C92E2E"/>
<path d="M16.205 31.107C27.9565 19.8728 49.669 15.7849 64.7012 21.9765L73.8181 25.7316C83.8152 29.8493 85.584 39.2441 77.7687 46.7154C69.9535 54.1867 55.5136 56.9053 45.5165 52.7876L17.7236 41.3401C13.0058 39.3969 12.1711 34.9634 15.8592 31.4376L16.205 31.107Z" fill="#C92E2E"/>
<path d="M51.1231 5.78638C63.7545 4.02388 77.4476 12.3403 81.7075 24.3616L81.9718 25.1075C86.0857 36.7168 79.5319 47.5078 67.3334 49.2099C51.7265 51.3876 34.8079 41.1122 29.5445 26.2591L28.507 23.3312C25.8236 15.7587 30.0985 8.72002 38.0553 7.60979L51.1231 5.78638Z" fill="#C92E2E"/>
<path d="M94.9415 5.33913C111.566 11.7685 114.917 27.2892 102.428 40.0056L97.5626 44.9588C88.4535 54.2332 71.2403 57.9503 59.1159 53.2613C46.9914 48.5722 44.547 37.2526 53.6561 27.9783L72.6342 8.65596C77.3296 3.87537 86.2024 1.95932 92.4521 4.37636L94.9415 5.33913Z" fill="#C92E2E"/>
<path d="M126.145 28.8953C130.097 38.7157 124.825 48.0196 114.369 49.6762L72.1435 56.3664C61.0406 58.1256 48.6382 51.0975 44.4419 40.6687C41.6649 33.7673 45.37 27.2289 52.7175 26.0647L106.197 17.5914C114.193 16.3246 123.124 21.3855 126.145 28.8953Z" fill="#C92E2E"/>
<path d="M132.874 58.3101C130.187 66.1809 121.328 71.6635 113.086 70.5559L62.6278 63.7754C53.4763 62.5456 48.4752 54.4644 51.4576 45.7255C54.4399 36.9866 64.2764 30.8992 73.4279 32.129L120.594 38.4671C130.654 39.8191 136.152 48.7031 132.874 58.3101Z" fill="#C92E2E"/>
<path d="M124.747 72.8147C113.738 81.5474 94.6109 83.562 82.0245 77.3144L56.8203 64.8036C47.0242 59.941 46.0287 50.4892 54.5968 43.6924C63.7005 36.4708 79.5181 34.8049 89.9265 39.9714L123.018 56.3973C130.636 60.1787 131.41 67.529 124.747 72.8147Z" fill="#C92E2E"/>
<path d="M118.013 76.8167C97.5178 85.5976 68.3638 79.6966 52.8962 63.6365L50.3668 61.0103C44.3175 54.7293 45.9116 46.8537 53.9273 43.4195L62.9482 39.5547C74.5675 34.5767 91.0953 37.922 99.8641 47.0267L119.844 67.772C122.955 71.0015 122.135 75.0509 118.013 76.8167Z" fill="#C92E2E"/>
</g>
<ellipse cx="56.4929" cy="90.2437" rx="3.94137" ry="6.35133" fill="black"/>
<ellipse cx="82.7688" cy="90.2437" rx="3.94137" ry="6.35133" fill="black"/>
<ellipse cx="30.2172" cy="101.676" rx="14.4517" ry="12.7027" fill="black"/>
<ellipse cx="106.417" cy="101.676" rx="14.4517" ry="12.7027" fill="black"/>
<path d="M37.9115 96.5949C38.7411 96.5949 39.4424 95.8659 38.9708 95.1834C38.6821 94.7656 38.2717 94.44 37.7916 94.2477C37.3114 94.0554 36.7831 94.0051 36.2734 94.1031C35.4489 94.2617 35.4284 95.2822 36.0321 95.8659L36.2638 96.0899C36.5988 96.4138 37.0465 96.5949 37.5125 96.5949H37.9115Z" fill="white"/>
<path d="M114.111 96.5949C114.941 96.5949 115.642 95.8659 115.171 95.1834C114.882 94.7656 114.472 94.44 113.992 94.2477C113.511 94.0554 112.983 94.0051 112.473 94.1031C111.649 94.2617 111.628 95.2822 112.232 95.8659L112.464 96.0899C112.799 96.4138 113.246 96.5949 113.712 96.5949H114.111Z" fill="white"/>
<path d="M70.52 96.5949C70.7545 96.5949 70.9483 96.4034 70.908 96.1723C70.8752 95.9842 70.8205 95.7998 70.7446 95.6226C70.6126 95.3144 70.419 95.0343 70.175 94.7984C69.931 94.5625 69.6414 94.3754 69.3226 94.2477C69.1306 94.1708 68.9303 94.1164 68.726 94.0853C68.5019 94.0511 68.317 94.2381 68.317 94.4649C68.317 94.6916 68.5031 94.8708 68.7242 94.9211C68.8173 94.9423 68.9088 94.9708 68.9976 95.0063C69.2133 95.0927 69.4094 95.2194 69.5745 95.379C69.7396 95.5387 69.8706 95.7283 69.96 95.9369C69.9932 96.0143 70.0204 96.0939 70.0415 96.1748C70.1006 96.4018 70.2855 96.5949 70.52 96.5949Z" fill="black"/>
<path d="M70.52 96.5949C70.7545 96.5949 70.9483 96.4034 70.908 96.1723C70.8752 95.9842 70.8205 95.7998 70.7446 95.6226C70.6126 95.3144 70.419 95.0343 70.175 94.7984C69.931 94.5625 69.6414 94.3754 69.3226 94.2477C69.1306 94.1708 68.9303 94.1164 68.726 94.0853C68.5019 94.0511 68.317 94.2381 68.317 94.4649C68.317 94.6916 68.5031 94.8708 68.7242 94.9211C68.8173 94.9423 68.9088 94.9708 68.9976 95.0063C69.2133 95.0927 69.4094 95.2194 69.5745 95.379C69.7396 95.5387 69.8706 95.7283 69.96 95.9369C69.9932 96.0143 70.0204 96.0939 70.0415 96.1748C70.1006 96.4018 70.2855 96.5949 70.52 96.5949Z" fill="black"/>
<path d="M65.4274 105.34C64.9221 105.814 64.9064 106.613 65.5203 106.947C65.8252 107.113 66.1543 107.248 66.504 107.35C67.2834 107.576 68.15 107.634 69.0545 107.518C69.959 107.403 70.8836 107.117 71.7756 106.677C72.3951 106.372 72.9904 105.996 73.5455 105.562C73.9514 105.244 73.9578 104.661 73.5938 104.298C73.2299 103.935 72.6341 103.932 72.2144 104.233C71.9094 104.451 71.5889 104.644 71.2582 104.807C70.6545 105.104 70.0287 105.298 69.4166 105.376C68.8044 105.454 68.2179 105.415 67.6904 105.262C67.5898 105.232 67.4916 105.199 67.3961 105.162C66.7429 104.907 65.9328 104.866 65.4274 105.34Z" fill="black"/>
<path d="M65.4274 105.34C64.9221 105.814 64.9064 106.613 65.5203 106.947C65.8252 107.113 66.1543 107.248 66.504 107.35C67.2834 107.576 68.15 107.634 69.0545 107.518C69.959 107.403 70.8836 107.117 71.7756 106.677C72.3951 106.372 72.9904 105.996 73.5455 105.562C73.9514 105.244 73.9578 104.661 73.5938 104.298C73.2299 103.935 72.6341 103.932 72.2144 104.233C71.9094 104.451 71.5889 104.644 71.2582 104.807C70.6545 105.104 70.0287 105.298 69.4166 105.376C68.8044 105.454 68.2179 105.415 67.6904 105.262C67.5898 105.232 67.4916 105.199 67.3961 105.162C66.7429 104.907 65.9328 104.866 65.4274 105.34Z" fill="black"/>
<ellipse cx="27.5896" cy="100.406" rx="9.19653" ry="8.89186" fill="white"/>
<ellipse cx="103.789" cy="100.406" rx="9.19653" ry="8.89186" fill="white"/>
<path d="M28.2504 93.8049V94.2927H27.7626V93.8049H28.2504ZM28.2504 94.2927V94.7805H27.7626V94.2927H28.2504ZM28.2504 94.7805V95.2683H27.7626V94.7805H28.2504ZM28.2504 95.2683V95.7561H27.7626V95.2683H28.2504ZM28.2504 95.7561V96.2439H27.7626V95.7561H28.2504ZM27.7626 95.7561V96.2439H27.2748V95.7561H27.7626ZM27.2748 95.7561V96.2439H26.787V95.7561H27.2748ZM27.2748 96.2439V96.7317H26.787V96.2439H27.2748ZM26.787 96.2439V96.7317H26.2992V96.2439H26.787ZM26.787 96.7317V97.2195H26.2992V96.7317H26.787ZM26.787 97.2195V97.7073H26.2992V97.2195H26.787ZM26.787 97.7073V98.1951H26.2992V97.7073H26.787ZM26.787 98.1951V98.6829H26.2992V98.1951H26.787ZM27.2748 98.1951V98.6829H26.787V98.1951H27.2748ZM27.2748 98.6829V99.1707H26.787V98.6829H27.2748ZM27.7626 98.6829V99.1707H27.2748V98.6829H27.7626ZM28.2504 98.6829V99.1707H27.7626V98.6829H28.2504ZM28.2504 99.1707V99.6585H27.7626V99.1707H28.2504ZM28.2504 99.6585V100.146H27.7626V99.6585H28.2504ZM28.2504 100.146V100.634H27.7626V100.146H28.2504ZM27.7626 100.146V100.634H27.2748V100.146H27.7626ZM27.2748 100.146V100.634H26.787V100.146H27.2748ZM27.2748 100.634V101.122H26.787V100.634H27.2748ZM26.787 100.634V101.122H26.2992V100.634H26.787ZM26.787 101.122V101.61H26.2992V101.122H26.787ZM26.787 101.61V102.098H26.2992V101.61H26.787ZM26.787 102.098V102.585H26.2992V102.098H26.787ZM26.787 102.585V103.073H26.2992V102.585H26.787ZM26.787 103.073V103.561H26.2992V103.073H26.787ZM27.2748 103.073V103.561H26.787V103.073H27.2748ZM27.2748 103.561V104.049H26.787V103.561H27.2748ZM27.7626 103.561V104.049H27.2748V103.561H27.7626ZM28.2504 103.561V104.049H27.7626V103.561H28.2504ZM28.2504 104.049V104.537H27.7626V104.049H28.2504ZM28.2504 104.537V105.024H27.7626V104.537H28.2504ZM28.2504 105.024V105.512H27.7626V105.024H28.2504ZM28.2504 105.512V106H27.7626V105.512H28.2504ZM27.7626 105.512V106H27.2748V105.512H27.7626ZM27.2748 105.512V106H26.787V105.512H27.2748ZM26.787 105.512V106H26.2992V105.512H26.787ZM26.787 105.024V105.512H26.2992V105.024H26.787ZM26.2992 105.024V105.512H25.8114V105.024H26.2992ZM25.8114 105.024V105.512H25.3236V105.024H25.8114ZM25.8114 104.537V105.024H25.3236V104.537H25.8114ZM25.3236 104.537V105.024H24.8358V104.537H25.3236ZM25.3236 104.049V104.537H24.8358V104.049H25.3236ZM25.3236 103.561V104.049H24.8358V103.561H25.3236ZM24.8358 103.561V104.049H24.348V103.561H24.8358ZM24.8358 103.073V103.561H24.348V103.073H24.8358ZM24.8358 102.585V103.073H24.348V102.585H24.8358ZM24.8358 102.098V102.585H24.348V102.098H24.8358ZM24.8358 101.61V102.098H24.348V101.61H24.8358ZM24.8358 101.122V101.61H24.348V101.122H24.8358ZM24.8358 100.634V101.122H24.348V100.634H24.8358ZM25.3236 100.634V101.122H24.8358V100.634H25.3236ZM25.3236 100.146V100.634H24.8358V100.146H25.3236ZM25.8114 100.146V100.634H25.3236V100.146H25.8114ZM25.8114 99.6585V100.146H25.3236V99.6585H25.8114ZM25.8114 99.1707V99.6585H25.3236V99.1707H25.8114ZM25.8114 98.6829V99.1707H25.3236V98.6829H25.8114ZM25.3236 98.6829V99.1707H24.8358V98.6829H25.3236ZM25.3236 98.1951V98.6829H24.8358V98.1951H25.3236ZM24.8358 98.1951V98.6829H24.348V98.1951H24.8358ZM24.8358 97.7073V98.1951H24.348V97.7073H24.8358ZM24.8358 97.2195V97.7073H24.348V97.2195H24.8358ZM24.8358 96.7317V97.2195H24.348V96.7317H24.8358ZM24.8358 96.2439V96.7317H24.348V96.2439H24.8358ZM24.8358 95.7561V96.2439H24.348V95.7561H24.8358ZM25.3236 95.7561V96.2439H24.8358V95.7561H25.3236ZM25.3236 95.2683V95.7561H24.8358V95.2683H25.3236ZM25.3236 94.7805V95.2683H24.8358V94.7805H25.3236ZM25.8114 94.7805V95.2683H25.3236V94.7805H25.8114ZM26.2992 94.7805V95.2683H25.8114V94.7805H26.2992ZM25.8114 94.2927V94.7805H25.3236V94.2927H25.8114ZM26.2992 94.2927V94.7805H25.8114V94.2927H26.2992ZM26.787 94.2927V94.7805H26.2992V94.2927H26.787ZM26.787 93.8049V94.2927H26.2992V93.8049H26.787ZM27.2748 93.8049V94.2927H26.787V93.8049H27.2748ZM27.7626 93.8049V94.2927H27.2748V93.8049H27.7626ZM27.7626 94.2927V94.7805H27.2748V94.2927H27.7626ZM27.7626 94.7805V95.2683H27.2748V94.7805H27.7626ZM27.7626 95.2683V95.7561H27.2748V95.2683H27.7626ZM27.2748 94.2927V94.7805H26.787V94.2927H27.2748ZM27.2748 94.7805V95.2683H26.787V94.7805H27.2748ZM27.2748 95.2683V95.7561H26.787V95.2683H27.2748ZM26.787 95.2683V95.7561H26.2992V95.2683H26.787ZM26.787 94.7805V95.2683H26.2992V94.7805H26.787ZM26.787 95.7561V96.2439H26.2992V95.7561H26.787ZM26.787 98.6829V99.1707H26.2992V98.6829H26.787ZM26.787 99.1707V99.6585H26.2992V99.1707H26.787ZM26.787 99.6585V100.146H26.2992V99.6585H26.787ZM26.787 100.146V100.634H26.2992V100.146H26.787ZM27.2748 99.6585V100.146H26.787V99.6585H27.2748ZM27.2748 99.1707V99.6585H26.787V99.1707H27.2748ZM27.7626 99.6585V100.146H27.2748V99.6585H27.7626ZM27.7626 99.1707V99.6585H27.2748V99.1707H27.7626ZM29.226 93.8049V94.2927H28.7382V93.8049H29.226ZM29.226 94.2927V94.7805H28.7382V94.2927H29.226ZM29.226 94.7805V95.2683H28.7382V94.7805H29.226ZM29.226 95.2683V95.7561H28.7382V95.2683H29.226ZM29.226 95.7561V96.2439H28.7382V95.7561H29.226ZM29.7138 95.7561V96.2439H29.226V95.7561H29.7138ZM29.7138 96.2439V96.7317H29.226V96.2439H29.7138ZM30.2016 96.2439V96.7317H29.7138V96.2439H30.2016ZM30.2016 96.7317V97.2195H29.7138V96.7317H30.2016ZM30.2016 97.2195V97.7073H29.7138V97.2195H30.2016ZM30.2016 97.7073V98.1951H29.7138V97.7073H30.2016ZM30.2016 98.1951V98.6829H29.7138V98.1951H30.2016ZM29.7138 98.1951V98.6829H29.226V98.1951H29.7138ZM29.7138 98.6829V99.1707H29.226V98.6829H29.7138ZM29.226 98.6829V99.1707H28.7382V98.6829H29.226ZM29.226 99.1707V99.6585H28.7382V99.1707H29.226ZM29.226 99.6585V100.146H28.7382V99.6585H29.226ZM29.226 100.146V100.634H28.7382V100.146H29.226ZM29.7138 100.146V100.634H29.226V100.146H29.7138ZM29.7138 100.634V101.122H29.226V100.634H29.7138ZM30.2016 100.634V101.122H29.7138V100.634H30.2016ZM30.2016 101.122V101.61H29.7138V101.122H30.2016ZM30.2016 101.61V102.098H29.7138V101.61H30.2016ZM30.2016 102.098V102.585H29.7138V102.098H30.2016ZM30.2016 102.585V103.073H29.7138V102.585H30.2016ZM30.2016 103.073V103.561H29.7138V103.073H30.2016ZM29.7138 103.073V103.561H29.226V103.073H29.7138ZM29.7138 103.561V104.049H29.226V103.561H29.7138ZM29.226 103.561V104.049H28.7382V103.561H29.226ZM29.226 104.049V104.537H28.7382V104.049H29.226ZM29.226 104.537V105.024H28.7382V104.537H29.226ZM29.226 105.024V105.512H28.7382V105.024H29.226ZM29.226 105.512V106H28.7382V105.512H29.226ZM29.7138 105.512V106H29.226V105.512H29.7138ZM30.2016 105.512V106H29.7138V105.512H30.2016ZM30.2016 105.024V105.512H29.7138V105.024H30.2016ZM30.6894 105.024V105.512H30.2016V105.024H30.6894ZM31.1772 105.024V105.512H30.6894V105.024H31.1772ZM31.1772 104.537V105.024H30.6894V104.537H31.1772ZM31.665 104.537V105.024H31.1772V104.537H31.665ZM31.665 104.049V104.537H31.1772V104.049H31.665ZM31.665 103.561V104.049H31.1772V103.561H31.665ZM32.1528 103.561V104.049H31.665V103.561H32.1528ZM32.1528 103.073V103.561H31.665V103.073H32.1528ZM32.1528 102.585V103.073H31.665V102.585H32.1528ZM32.1528 102.098V102.585H31.665V102.098H32.1528ZM32.1528 101.61V102.098H31.665V101.61H32.1528ZM32.1528 101.122V101.61H31.665V101.122H32.1528ZM32.1528 100.634V101.122H31.665V100.634H32.1528ZM31.665 100.634V101.122H31.1772V100.634H31.665ZM31.665 100.146V100.634H31.1772V100.146H31.665ZM31.1772 100.146V100.634H30.6894V100.146H31.1772ZM31.1772 99.6585V100.146H30.6894V99.6585H31.1772ZM31.1772 99.1707V99.6585H30.6894V99.1707H31.1772ZM31.1772 98.6829V99.1707H30.6894V98.6829H31.1772ZM31.665 98.6829V99.1707H31.1772V98.6829H31.665ZM31.665 98.1951V98.6829H31.1772V98.1951H31.665ZM32.1528 98.1951V98.6829H31.665V98.1951H32.1528ZM32.1528 97.7073V98.1951H31.665V97.7073H32.1528ZM32.1528 97.2195V97.7073H31.665V97.2195H32.1528ZM32.1528 96.7317V97.2195H31.665V96.7317H32.1528ZM32.1528 96.2439V96.7317H31.665V96.2439H32.1528ZM32.1528 95.7561V96.2439H31.665V95.7561H32.1528ZM31.665 95.7561V96.2439H31.1772V95.7561H31.665ZM31.665 95.2683V95.7561H31.1772V95.2683H31.665ZM31.665 94.7805V95.2683H31.1772V94.7805H31.665ZM31.1772 94.7805V95.2683H30.6894V94.7805H31.1772ZM31.1772 94.2927V94.7805H30.6894V94.2927H31.1772ZM30.6894 94.2927V94.7805H30.2016V94.2927H30.6894ZM30.2016 94.2927V94.7805H29.7138V94.2927H30.2016ZM30.2016 93.8049V94.2927H29.7138V93.8049H30.2016ZM29.7138 93.8049V94.2927H29.226V93.8049H29.7138ZM29.7138 94.2927V94.7805H29.226V94.2927H29.7138ZM29.7138 94.7805V95.2683H29.226V94.7805H29.7138ZM29.7138 95.2683V95.7561H29.226V95.2683H29.7138ZM30.2016 95.2683V95.7561H29.7138V95.2683H30.2016ZM30.2016 94.7805V95.2683H29.7138V94.7805H30.2016ZM30.2016 95.7561V96.2439H29.7138V95.7561H30.2016ZM30.2016 98.6829V99.1707H29.7138V98.6829H30.2016ZM30.2016 99.1707V99.6585H29.7138V99.1707H30.2016ZM30.2016 99.6585V100.146H29.7138V99.6585H30.2016ZM30.6894 99.6585V100.146H30.2016V99.6585H30.6894ZM30.6894 100.146V100.634H30.2016V100.146H30.6894ZM30.6894 100.634V101.122H30.2016V100.634H30.6894ZM30.2016 100.146V100.634H29.7138V100.146H30.2016ZM29.7138 99.1707V99.6585H29.226V99.1707H29.7138ZM29.7138 99.6585V100.146H29.226V99.6585H29.7138ZM30.6894 101.122V101.61H30.2016V101.122H30.6894ZM30.6894 101.61V102.098H30.2016V101.61H30.6894ZM30.6894 102.098V102.585H30.2016V102.098H30.6894ZM30.6894 102.585V103.073H30.2016V102.585H30.6894ZM30.6894 103.073V103.561H30.2016V103.073H30.6894ZM30.6894 103.561V104.049H30.2016V103.561H30.6894ZM30.6894 104.049V104.537H30.2016V104.049H30.6894ZM30.2016 104.049V104.537H29.7138V104.049H30.2016ZM30.2016 104.537V105.024H29.7138V104.537H30.2016ZM30.6894 104.537V105.024H30.2016V104.537H30.6894ZM30.2016 103.561V104.049H29.7138V103.561H30.2016ZM29.7138 104.049V104.537H29.226V104.049H29.7138ZM29.7138 104.537V105.024H29.226V104.537H29.7138ZM29.7138 105.024V105.512H29.226V105.024H29.7138ZM31.1772 104.049V104.537H30.6894V104.049H31.1772ZM31.1772 103.561V104.049H30.6894V103.561H31.1772ZM31.1772 103.073V103.561H30.6894V103.073H31.1772ZM31.1772 102.585V103.073H30.6894V102.585H31.1772ZM31.1772 102.098V102.585H30.6894V102.098H31.1772ZM31.1772 101.61V102.098H30.6894V101.61H31.1772ZM31.1772 101.122V101.61H30.6894V101.122H31.1772ZM31.665 101.122V101.61H31.1772V101.122H31.665ZM31.1772 100.634V101.122H30.6894V100.634H31.1772ZM31.665 101.61V102.098H31.1772V101.61H31.665ZM31.665 102.098V102.585H31.1772V102.098H31.665ZM31.665 102.585V103.073H31.1772V102.585H31.665ZM31.665 103.073V103.561H31.1772V103.073H31.665ZM30.6894 95.2683V95.7561H30.2016V95.2683H30.6894ZM30.6894 95.7561V96.2439H30.2016V95.7561H30.6894ZM30.6894 94.7805V95.2683H30.2016V94.7805H30.6894ZM31.1772 95.7561V96.2439H30.6894V95.7561H31.1772ZM31.1772 95.2683V95.7561H30.6894V95.2683H31.1772ZM31.1772 96.2439V96.7317H30.6894V96.2439H31.1772ZM31.1772 96.7317V97.2195H30.6894V96.7317H31.1772ZM31.1772 97.2195V97.7073H30.6894V97.2195H31.1772ZM31.1772 97.7073V98.1951H30.6894V97.7073H31.1772ZM31.1772 98.1951V98.6829H30.6894V98.1951H31.1772ZM30.6894 98.1951V98.6829H30.2016V98.1951H30.6894ZM30.6894 98.6829V99.1707H30.2016V98.6829H30.6894ZM30.6894 99.1707V99.6585H30.2016V99.1707H30.6894ZM30.6894 97.7073V98.1951H30.2016V97.7073H30.6894ZM30.6894 97.2195V97.7073H30.2016V97.2195H30.6894ZM30.6894 96.7317V97.2195H30.2016V96.7317H30.6894ZM31.665 96.2439V96.7317H31.1772V96.2439H31.665ZM31.665 96.7317V97.2195H31.1772V96.7317H31.665ZM31.665 97.2195V97.7073H31.1772V97.2195H31.665ZM31.665 97.7073V98.1951H31.1772V97.7073H31.665ZM30.6894 96.2439V96.7317H30.2016V96.2439H30.6894ZM25.8114 95.2683V95.7561H25.3236V95.2683H25.8114ZM26.2992 95.2683V95.7561H25.8114V95.2683H26.2992ZM26.2992 95.7561V96.2439H25.8114V95.7561H26.2992ZM26.2992 96.2439V96.7317H25.8114V96.2439H26.2992ZM26.2992 97.2195V97.7073H25.8114V97.2195H26.2992ZM26.2992 97.7073V98.1951H25.8114V97.7073H26.2992ZM26.2992 98.1951V98.6829H25.8114V98.1951H26.2992ZM26.2992 98.6829V99.1707H25.8114V98.6829H26.2992ZM26.2992 99.1707V99.6585H25.8114V99.1707H26.2992ZM26.2992 99.6585V100.146H25.8114V99.6585H26.2992ZM26.2992 100.146V100.634H25.8114V100.146H26.2992ZM26.2992 100.634V101.122H25.8114V100.634H26.2992ZM26.2992 101.122V101.61H25.8114V101.122H26.2992ZM26.2992 101.61V102.098H25.8114V101.61H26.2992ZM26.2992 102.098V102.585H25.8114V102.098H26.2992ZM26.2992 102.585V103.073H25.8114V102.585H26.2992ZM26.2992 103.073V103.561H25.8114V103.073H26.2992ZM26.2992 103.561V104.049H25.8114V103.561H26.2992ZM26.2992 104.049V104.537H25.8114V104.049H26.2992ZM26.2992 104.537V105.024H25.8114V104.537H26.2992ZM26.787 104.537V105.024H26.2992V104.537H26.787ZM26.787 104.049V104.537H26.2992V104.049H26.787ZM26.787 103.561V104.049H26.2992V103.561H26.787ZM27.2748 104.049V104.537H26.787V104.049H27.2748ZM27.7626 104.049V104.537H27.2748V104.049H27.7626ZM27.7626 104.537V105.024H27.2748V104.537H27.7626ZM27.7626 105.024V105.512H27.2748V105.024H27.7626ZM27.2748 105.024V105.512H26.787V105.024H27.2748ZM27.2748 104.537V105.024H26.787V104.537H27.2748ZM25.8114 104.049V104.537H25.3236V104.049H25.8114ZM25.8114 103.561V104.049H25.3236V103.561H25.8114ZM25.8114 103.073V103.561H25.3236V103.073H25.8114ZM25.8114 102.585V103.073H25.3236V102.585H25.8114ZM25.8114 102.098V102.585H25.3236V102.098H25.8114ZM25.8114 101.61V102.098H25.3236V101.61H25.8114ZM25.8114 101.122V101.61H25.3236V101.122H25.8114ZM25.8114 100.634V101.122H25.3236V100.634H25.8114ZM25.3236 101.122V101.61H24.8358V101.122H25.3236ZM25.3236 101.61V102.098H24.8358V101.61H25.3236ZM25.3236 102.098V102.585H24.8358V102.098H25.3236ZM25.3236 102.585V103.073H24.8358V102.585H25.3236ZM25.3236 103.073V103.561H24.8358V103.073H25.3236ZM25.8114 98.1951V98.6829H25.3236V98.1951H25.8114ZM25.8114 97.7073V98.1951H25.3236V97.7073H25.8114ZM25.8114 97.2195V97.7073H25.3236V97.2195H25.8114ZM25.8114 96.7317V97.2195H25.3236V96.7317H25.8114ZM25.8114 96.2439V96.7317H25.3236V96.2439H25.8114ZM25.8114 95.7561V96.2439H25.3236V95.7561H25.8114ZM25.3236 96.2439V96.7317H24.8358V96.2439H25.3236ZM25.3236 96.7317V97.2195H24.8358V96.7317H25.3236ZM25.3236 97.2195V97.7073H24.8358V97.2195H25.3236ZM25.3236 97.7073V98.1951H24.8358V97.7073H25.3236ZM26.2992 96.7317V97.2195H25.8114V96.7317H26.2992ZM28.7382 93.8049V94.2927H28.2504V93.8049H28.7382ZM28.7382 94.2927V94.7805H28.2504V94.2927H28.7382ZM28.7382 94.7805V95.2683H28.2504V94.7805H28.7382ZM28.7382 95.2683V95.7561H28.2504V95.2683H28.7382ZM28.7382 95.7561V96.2439H28.2504V95.7561H28.7382ZM28.7382 98.6829V99.1707H28.2504V98.6829H28.7382ZM28.7382 99.1707V99.6585H28.2504V99.1707H28.7382ZM28.7382 99.6585V100.146H28.2504V99.6585H28.7382ZM28.7382 100.146V100.634H28.2504V100.146H28.7382ZM28.7382 103.561V104.049H28.2504V103.561H28.7382ZM28.7382 104.049V104.537H28.2504V104.049H28.7382ZM28.7382 104.537V105.024H28.2504V104.537H28.7382ZM28.7382 105.024V105.512H28.2504V105.024H28.7382ZM28.7382 105.512V106H28.2504V105.512H28.7382Z" fill="black"/>
<path d="M104.25 93.8049V94.2927H103.763V93.8049H104.25ZM104.25 94.2927V94.7805H103.763V94.2927H104.25ZM104.25 94.7805V95.2683H103.763V94.7805H104.25ZM104.25 95.2683V95.7561H103.763V95.2683H104.25ZM104.25 95.7561V96.2439H103.763V95.7561H104.25ZM103.763 95.7561V96.2439H103.275V95.7561H103.763ZM103.275 95.7561V96.2439H102.787V95.7561H103.275ZM103.275 96.2439V96.7317H102.787V96.2439H103.275ZM102.787 96.2439V96.7317H102.299V96.2439H102.787ZM102.787 96.7317V97.2195H102.299V96.7317H102.787ZM102.787 97.2195V97.7073H102.299V97.2195H102.787ZM102.787 97.7073V98.1951H102.299V97.7073H102.787ZM102.787 98.1951V98.6829H102.299V98.1951H102.787ZM103.275 98.1951V98.6829H102.787V98.1951H103.275ZM103.275 98.6829V99.1707H102.787V98.6829H103.275ZM103.763 98.6829V99.1707H103.275V98.6829H103.763ZM104.25 98.6829V99.1707H103.763V98.6829H104.25ZM104.25 99.1707V99.6585H103.763V99.1707H104.25ZM104.25 99.6585V100.146H103.763V99.6585H104.25ZM104.25 100.146V100.634H103.763V100.146H104.25ZM103.763 100.146V100.634H103.275V100.146H103.763ZM103.275 100.146V100.634H102.787V100.146H103.275ZM103.275 100.634V101.122H102.787V100.634H103.275ZM102.787 100.634V101.122H102.299V100.634H102.787ZM102.787 101.122V101.61H102.299V101.122H102.787ZM102.787 101.61V102.098H102.299V101.61H102.787ZM102.787 102.098V102.585H102.299V102.098H102.787ZM102.787 102.585V103.073H102.299V102.585H102.787ZM102.787 103.073V103.561H102.299V103.073H102.787ZM103.275 103.073V103.561H102.787V103.073H103.275ZM103.275 103.561V104.049H102.787V103.561H103.275ZM103.763 103.561V104.049H103.275V103.561H103.763ZM104.25 103.561V104.049H103.763V103.561H104.25ZM104.25 104.049V104.537H103.763V104.049H104.25ZM104.25 104.537V105.024H103.763V104.537H104.25ZM104.25 105.024V105.512H103.763V105.024H104.25ZM104.25 105.512V106H103.763V105.512H104.25ZM103.763 105.512V106H103.275V105.512H103.763ZM103.275 105.512V106H102.787V105.512H103.275ZM102.787 105.512V106H102.299V105.512H102.787ZM102.787 105.024V105.512H102.299V105.024H102.787ZM102.299 105.024V105.512H101.811V105.024H102.299ZM101.811 105.024V105.512H101.324V105.024H101.811ZM101.811 104.537V105.024H101.324V104.537H101.811ZM101.324 104.537V105.024H100.836V104.537H101.324ZM101.324 104.049V104.537H100.836V104.049H101.324ZM101.324 103.561V104.049H100.836V103.561H101.324ZM100.836 103.561V104.049H100.348V103.561H100.836ZM100.836 103.073V103.561H100.348V103.073H100.836ZM100.836 102.585V103.073H100.348V102.585H100.836ZM100.836 102.098V102.585H100.348V102.098H100.836ZM100.836 101.61V102.098H100.348V101.61H100.836ZM100.836 101.122V101.61H100.348V101.122H100.836ZM100.836 100.634V101.122H100.348V100.634H100.836ZM101.324 100.634V101.122H100.836V100.634H101.324ZM101.324 100.146V100.634H100.836V100.146H101.324ZM101.811 100.146V100.634H101.324V100.146H101.811ZM101.811 99.6585V100.146H101.324V99.6585H101.811ZM101.811 99.1707V99.6585H101.324V99.1707H101.811ZM101.811 98.6829V99.1707H101.324V98.6829H101.811ZM101.324 98.6829V99.1707H100.836V98.6829H101.324ZM101.324 98.1951V98.6829H100.836V98.1951H101.324ZM100.836 98.1951V98.6829H100.348V98.1951H100.836ZM100.836 97.7073V98.1951H100.348V97.7073H100.836ZM100.836 97.2195V97.7073H100.348V97.2195H100.836ZM100.836 96.7317V97.2195H100.348V96.7317H100.836ZM100.836 96.2439V96.7317H100.348V96.2439H100.836ZM100.836 95.7561V96.2439H100.348V95.7561H100.836ZM101.324 95.7561V96.2439H100.836V95.7561H101.324ZM101.324 95.2683V95.7561H100.836V95.2683H101.324ZM101.324 94.7805V95.2683H100.836V94.7805H101.324ZM101.811 94.7805V95.2683H101.324V94.7805H101.811ZM102.299 94.7805V95.2683H101.811V94.7805H102.299ZM101.811 94.2927V94.7805H101.324V94.2927H101.811ZM102.299 94.2927V94.7805H101.811V94.2927H102.299ZM102.787 94.2927V94.7805H102.299V94.2927H102.787ZM102.787 93.8049V94.2927H102.299V93.8049H102.787ZM103.275 93.8049V94.2927H102.787V93.8049H103.275ZM103.763 93.8049V94.2927H103.275V93.8049H103.763ZM103.763 94.2927V94.7805H103.275V94.2927H103.763ZM103.763 94.7805V95.2683H103.275V94.7805H103.763ZM103.763 95.2683V95.7561H103.275V95.2683H103.763ZM103.275 94.2927V94.7805H102.787V94.2927H103.275ZM103.275 94.7805V95.2683H102.787V94.7805H103.275ZM103.275 95.2683V95.7561H102.787V95.2683H103.275ZM102.787 95.2683V95.7561H102.299V95.2683H102.787ZM102.787 94.7805V95.2683H102.299V94.7805H102.787ZM102.787 95.7561V96.2439H102.299V95.7561H102.787ZM102.787 98.6829V99.1707H102.299V98.6829H102.787ZM102.787 99.1707V99.6585H102.299V99.1707H102.787ZM102.787 99.6585V100.146H102.299V99.6585H102.787ZM102.787 100.146V100.634H102.299V100.146H102.787ZM103.275 99.6585V100.146H102.787V99.6585H103.275ZM103.275 99.1707V99.6585H102.787V99.1707H103.275ZM103.763 99.6585V100.146H103.275V99.6585H103.763ZM103.763 99.1707V99.6585H103.275V99.1707H103.763ZM105.226 93.8049V94.2927H104.738V93.8049H105.226ZM105.226 94.2927V94.7805H104.738V94.2927H105.226ZM105.226 94.7805V95.2683H104.738V94.7805H105.226ZM105.226 95.2683V95.7561H104.738V95.2683H105.226ZM105.226 95.7561V96.2439H104.738V95.7561H105.226ZM105.714 95.7561V96.2439H105.226V95.7561H105.714ZM105.714 96.2439V96.7317H105.226V96.2439H105.714ZM106.202 96.2439V96.7317H105.714V96.2439H106.202ZM106.202 96.7317V97.2195H105.714V96.7317H106.202ZM106.202 97.2195V97.7073H105.714V97.2195H106.202ZM106.202 97.7073V98.1951H105.714V97.7073H106.202ZM106.202 98.1951V98.6829H105.714V98.1951H106.202ZM105.714 98.1951V98.6829H105.226V98.1951H105.714ZM105.714 98.6829V99.1707H105.226V98.6829H105.714ZM105.226 98.6829V99.1707H104.738V98.6829H105.226ZM105.226 99.1707V99.6585H104.738V99.1707H105.226ZM105.226 99.6585V100.146H104.738V99.6585H105.226ZM105.226 100.146V100.634H104.738V100.146H105.226ZM105.714 100.146V100.634H105.226V100.146H105.714ZM105.714 100.634V101.122H105.226V100.634H105.714ZM106.202 100.634V101.122H105.714V100.634H106.202ZM106.202 101.122V101.61H105.714V101.122H106.202ZM106.202 101.61V102.098H105.714V101.61H106.202ZM106.202 102.098V102.585H105.714V102.098H106.202ZM106.202 102.585V103.073H105.714V102.585H106.202ZM106.202 103.073V103.561H105.714V103.073H106.202ZM105.714 103.073V103.561H105.226V103.073H105.714ZM105.714 103.561V104.049H105.226V103.561H105.714ZM105.226 103.561V104.049H104.738V103.561H105.226ZM105.226 104.049V104.537H104.738V104.049H105.226ZM105.226 104.537V105.024H104.738V104.537H105.226ZM105.226 105.024V105.512H104.738V105.024H105.226ZM105.226 105.512V106H104.738V105.512H105.226ZM105.714 105.512V106H105.226V105.512H105.714ZM106.202 105.512V106H105.714V105.512H106.202ZM106.202 105.024V105.512H105.714V105.024H106.202ZM106.689 105.024V105.512H106.202V105.024H106.689ZM107.177 105.024V105.512H106.689V105.024H107.177ZM107.177 104.537V105.024H106.689V104.537H107.177ZM107.665 104.537V105.024H107.177V104.537H107.665ZM107.665 104.049V104.537H107.177V104.049H107.665ZM107.665 103.561V104.049H107.177V103.561H107.665ZM108.153 103.561V104.049H107.665V103.561H108.153ZM108.153 103.073V103.561H107.665V103.073H108.153ZM108.153 102.585V103.073H107.665V102.585H108.153ZM108.153 102.098V102.585H107.665V102.098H108.153ZM108.153 101.61V102.098H107.665V101.61H108.153ZM108.153 101.122V101.61H107.665V101.122H108.153ZM108.153 100.634V101.122H107.665V100.634H108.153ZM107.665 100.634V101.122H107.177V100.634H107.665ZM107.665 100.146V100.634H107.177V100.146H107.665ZM107.177 100.146V100.634H106.689V100.146H107.177ZM107.177 99.6585V100.146H106.689V99.6585H107.177ZM107.177 99.1707V99.6585H106.689V99.1707H107.177ZM107.177 98.6829V99.1707H106.689V98.6829H107.177ZM107.665 98.6829V99.1707H107.177V98.6829H107.665ZM107.665 98.1951V98.6829H107.177V98.1951H107.665ZM108.153 98.1951V98.6829H107.665V98.1951H108.153ZM108.153 97.7073V98.1951H107.665V97.7073H108.153ZM108.153 97.2195V97.7073H107.665V97.2195H108.153ZM108.153 96.7317V97.2195H107.665V96.7317H108.153ZM108.153 96.2439V96.7317H107.665V96.2439H108.153ZM108.153 95.7561V96.2439H107.665V95.7561H108.153ZM107.665 95.7561V96.2439H107.177V95.7561H107.665ZM107.665 95.2683V95.7561H107.177V95.2683H107.665ZM107.665 94.7805V95.2683H107.177V94.7805H107.665ZM107.177 94.7805V95.2683H106.689V94.7805H107.177ZM107.177 94.2927V94.7805H106.689V94.2927H107.177ZM106.689 94.2927V94.7805H106.202V94.2927H106.689ZM106.202 94.2927V94.7805H105.714V94.2927H106.202ZM106.202 93.8049V94.2927H105.714V93.8049H106.202ZM105.714 93.8049V94.2927H105.226V93.8049H105.714ZM105.714 94.2927V94.7805H105.226V94.2927H105.714ZM105.714 94.7805V95.2683H105.226V94.7805H105.714ZM105.714 95.2683V95.7561H105.226V95.2683H105.714ZM106.202 95.2683V95.7561H105.714V95.2683H106.202ZM106.202 94.7805V95.2683H105.714V94.7805H106.202ZM106.202 95.7561V96.2439H105.714V95.7561H106.202ZM106.202 98.6829V99.1707H105.714V98.6829H106.202ZM106.202 99.1707V99.6585H105.714V99.1707H106.202ZM106.202 99.6585V100.146H105.714V99.6585H106.202ZM106.689 99.6585V100.146H106.202V99.6585H106.689ZM106.689 100.146V100.634H106.202V100.146H106.689ZM106.689 100.634V101.122H106.202V100.634H106.689ZM106.202 100.146V100.634H105.714V100.146H106.202ZM105.714 99.1707V99.6585H105.226V99.1707H105.714ZM105.714 99.6585V100.146H105.226V99.6585H105.714ZM106.689 101.122V101.61H106.202V101.122H106.689ZM106.689 101.61V102.098H106.202V101.61H106.689ZM106.689 102.098V102.585H106.202V102.098H106.689ZM106.689 102.585V103.073H106.202V102.585H106.689ZM106.689 103.073V103.561H106.202V103.073H106.689ZM106.689 103.561V104.049H106.202V103.561H106.689ZM106.689 104.049V104.537H106.202V104.049H106.689ZM106.202 104.049V104.537H105.714V104.049H106.202ZM106.202 104.537V105.024H105.714V104.537H106.202ZM106.689 104.537V105.024H106.202V104.537H106.689ZM106.202 103.561V104.049H105.714V103.561H106.202ZM105.714 104.049V104.537H105.226V104.049H105.714ZM105.714 104.537V105.024H105.226V104.537H105.714ZM105.714 105.024V105.512H105.226V105.024H105.714ZM107.177 104.049V104.537H106.689V104.049H107.177ZM107.177 103.561V104.049H106.689V103.561H107.177ZM107.177 103.073V103.561H106.689V103.073H107.177ZM107.177 102.585V103.073H106.689V102.585H107.177ZM107.177 102.098V102.585H106.689V102.098H107.177ZM107.177 101.61V102.098H106.689V101.61H107.177ZM107.177 101.122V101.61H106.689V101.122H107.177ZM107.665 101.122V101.61H107.177V101.122H107.665ZM107.177 100.634V101.122H106.689V100.634H107.177ZM107.665 101.61V102.098H107.177V101.61H107.665ZM107.665 102.098V102.585H107.177V102.098H107.665ZM107.665 102.585V103.073H107.177V102.585H107.665ZM107.665 103.073V103.561H107.177V103.073H107.665ZM106.689 95.2683V95.7561H106.202V95.2683H106.689ZM106.689 95.7561V96.2439H106.202V95.7561H106.689ZM106.689 94.7805V95.2683H106.202V94.7805H106.689ZM107.177 95.7561V96.2439H106.689V95.7561H107.177ZM107.177 95.2683V95.7561H106.689V95.2683H107.177ZM107.177 96.2439V96.7317H106.689V96.2439H107.177ZM107.177 96.7317V97.2195H106.689V96.7317H107.177ZM107.177 97.2195V97.7073H106.689V97.2195H107.177ZM107.177 97.7073V98.1951H106.689V97.7073H107.177ZM107.177 98.1951V98.6829H106.689V98.1951H107.177ZM106.689 98.1951V98.6829H106.202V98.1951H106.689ZM106.689 98.6829V99.1707H106.202V98.6829H106.689ZM106.689 99.1707V99.6585H106.202V99.1707H106.689ZM106.689 97.7073V98.1951H106.202V97.7073H106.689ZM106.689 97.2195V97.7073H106.202V97.2195H106.689ZM106.689 96.7317V97.2195H106.202V96.7317H106.689ZM107.665 96.2439V96.7317H107.177V96.2439H107.665ZM107.665 96.7317V97.2195H107.177V96.7317H107.665ZM107.665 97.2195V97.7073H107.177V97.2195H107.665ZM107.665 97.7073V98.1951H107.177V97.7073H107.665ZM106.689 96.2439V96.7317H106.202V96.2439H106.689ZM101.811 95.2683V95.7561H101.324V95.2683H101.811ZM102.299 95.2683V95.7561H101.811V95.2683H102.299ZM102.299 95.7561V96.2439H101.811V95.7561H102.299ZM102.299 96.2439V96.7317H101.811V96.2439H102.299ZM102.299 97.2195V97.7073H101.811V97.2195H102.299ZM102.299 97.7073V98.1951H101.811V97.7073H102.299ZM102.299 98.1951V98.6829H101.811V98.1951H102.299ZM102.299 98.6829V99.1707H101.811V98.6829H102.299ZM102.299 99.1707V99.6585H101.811V99.1707H102.299ZM102.299 99.6585V100.146H101.811V99.6585H102.299ZM102.299 100.146V100.634H101.811V100.146H102.299ZM102.299 100.634V101.122H101.811V100.634H102.299ZM102.299 101.122V101.61H101.811V101.122H102.299ZM102.299 101.61V102.098H101.811V101.61H102.299ZM102.299 102.098V102.585H101.811V102.098H102.299ZM102.299 102.585V103.073H101.811V102.585H102.299ZM102.299 103.073V103.561H101.811V103.073H102.299ZM102.299 103.561V104.049H101.811V103.561H102.299ZM102.299 104.049V104.537H101.811V104.049H102.299ZM102.299 104.537V105.024H101.811V104.537H102.299ZM102.787 104.537V105.024H102.299V104.537H102.787ZM102.787 104.049V104.537H102.299V104.049H102.787ZM102.787 103.561V104.049H102.299V103.561H102.787ZM103.275 104.049V104.537H102.787V104.049H103.275ZM103.763 104.049V104.537H103.275V104.049H103.763ZM103.763 104.537V105.024H103.275V104.537H103.763ZM103.763 105.024V105.512H103.275V105.024H103.763ZM103.275 105.024V105.512H102.787V105.024H103.275ZM103.275 104.537V105.024H102.787V104.537H103.275ZM101.811 104.049V104.537H101.324V104.049H101.811ZM101.811 103.561V104.049H101.324V103.561H101.811ZM101.811 103.073V103.561H101.324V103.073H101.811ZM101.811 102.585V103.073H101.324V102.585H101.811ZM101.811 102.098V102.585H101.324V102.098H101.811ZM101.811 101.61V102.098H101.324V101.61H101.811ZM101.811 101.122V101.61H101.324V101.122H101.811ZM101.811 100.634V101.122H101.324V100.634H101.811ZM101.324 101.122V101.61H100.836V101.122H101.324ZM101.324 101.61V102.098H100.836V101.61H101.324ZM101.324 102.098V102.585H100.836V102.098H101.324ZM101.324 102.585V103.073H100.836V102.585H101.324ZM101.324 103.073V103.561H100.836V103.073H101.324ZM101.811 98.1951V98.6829H101.324V98.1951H101.811ZM101.811 97.7073V98.1951H101.324V97.7073H101.811ZM101.811 97.2195V97.7073H101.324V97.2195H101.811ZM101.811 96.7317V97.2195H101.324V96.7317H101.811ZM101.811 96.2439V96.7317H101.324V96.2439H101.811ZM101.811 95.7561V96.2439H101.324V95.7561H101.811ZM101.324 96.2439V96.7317H100.836V96.2439H101.324ZM101.324 96.7317V97.2195H100.836V96.7317H101.324ZM101.324 97.2195V97.7073H100.836V97.2195H101.324ZM101.324 97.7073V98.1951H100.836V97.7073H101.324ZM102.299 96.7317V97.2195H101.811V96.7317H102.299ZM104.738 93.8049V94.2927H104.25V93.8049H104.738ZM104.738 94.2927V94.7805H104.25V94.2927H104.738ZM104.738 94.7805V95.2683H104.25V94.7805H104.738ZM104.738 95.2683V95.7561H104.25V95.2683H104.738ZM104.738 95.7561V96.2439H104.25V95.7561H104.738ZM104.738 98.6829V99.1707H104.25V98.6829H104.738ZM104.738 99.1707V99.6585H104.25V99.1707H104.738ZM104.738 99.6585V100.146H104.25V99.6585H104.738ZM104.738 100.146V100.634H104.25V100.146H104.738ZM104.738 103.561V104.049H104.25V103.561H104.738ZM104.738 104.049V104.537H104.25V104.049H104.738ZM104.738 104.537V105.024H104.25V104.537H104.738ZM104.738 105.024V105.512H104.25V105.024H104.738ZM104.738 105.512V106H104.25V105.512H104.738Z" fill="black"/>
<defs>
<filter id="filter0_f_47_28" x="25" y="89" width="32" height="25" filterUnits="userSpaceOnUse" color-interpolation-filters="sRGB">
<feFlood flood-opacity="0" result="BackgroundImageFix"/>
<feBlend mode="normal" in="SourceGraphic" in2="BackgroundImageFix" result="shape"/>
<feGaussianBlur stdDeviation="2" result="effect1_foregroundBlur_47_28"/>
</filter>
<filter id="filter1_f_47_28" x="83" y="89" width="31" height="27" filterUnits="userSpaceOnUse" color-interpolation-filters="sRGB">
<feFlood flood-opacity="0" result="BackgroundImageFix"/>
<feBlend mode="normal" in="SourceGraphic" in2="BackgroundImageFix" result="shape"/>
<feGaussianBlur stdDeviation="2" result="effect1_foregroundBlur_47_28"/>
</filter>
<filter id="filter2_i_47_28" x="6.22437" y="3.33081" width="127.597" height="86.152" filterUnits="userSpaceOnUse" color-interpolation-filters="sRGB">
<feFlood flood-opacity="0" result="BackgroundImageFix"/>
<feBlend mode="normal" in="SourceGraphic" in2="BackgroundImageFix" result="shape"/>
<feColorMatrix in="SourceAlpha" type="matrix" values="0 0 0 0 0 0 0 0 0 0 0 0 0 0 0 0 0 0 127 0" result="hardAlpha"/>
<feOffset dy="6"/>
<feGaussianBlur stdDeviation="4.45"/>
<feComposite in2="hardAlpha" operator="arithmetic" k2="-1" k3="1"/>
<feColorMatrix type="matrix" values="0 0 0 0 1 0 0 0 0 0.999986 0 0 0 0 0.999166 0 0 0 1 0"/>
<feBlend mode="normal" in2="shape" result="effect1_innerShadow_47_28"/>
</filter>
</defs>
</svg>
