<svg width="139" height="115" viewBox="0 0 139 115" fill="none" xmlns="http://www.w3.org/2000/svg">
<path d="M36.6395 49.499C36.6395 46.7376 38.8781 44.499 41.6395 44.499H107.361C110.122 44.499 112.361 46.7376 112.361 49.499V106.76C112.361 111.179 108.779 114.76 104.361 114.76H44.6395C40.2213 114.76 36.6395 111.179 36.6395 106.76V49.499Z" fill="#FFD1A6"/>
<path d="M36.6395 49.499C36.6395 46.7376 38.8781 44.499 41.6395 44.499H107.361C110.122 44.499 112.361 46.7376 112.361 49.499V106.76C112.361 111.179 108.779 114.76 104.361 114.76H44.6395C40.2213 114.76 36.6395 111.179 36.6395 106.76V49.499Z" fill="#FFD1A6"/>
<g filter="url(#filter0_f_42_117)">
<ellipse cx="45.1886" cy="96.0239" rx="10.9918" ry="11.7102" fill="#FF0000" fill-opacity="0.5"/>
</g>
<g filter="url(#filter1_f_42_117)">
<ellipse cx="101.369" cy="96.0239" rx="10.9918" ry="11.7102" fill="#FF0000" fill-opacity="0.5"/>
</g>
<g filter="url(#filter2_i_42_117)">
<path d="M36.0131 77.5173C20.8816 70.9451 18.5976 56.7175 30.9116 45.7393L37.2106 40.1235C46.0458 32.2467 62.0091 29.684 72.8658 34.3995C83.7225 39.1151 85.3613 49.3232 76.5261 57.1999L47.9306 82.6936L36.0131 77.5173Z" fill="#EDC27C"/>
<path d="M9.06822 62.5349C4.05998 46.3547 13.633 31.604 30.4502 29.5883L61.2799 25.8931C69.6885 24.8853 78.535 30.6266 81.0391 38.7167C83.5432 46.8068 78.7567 54.1821 70.3481 55.19L9.06822 62.5349Z" fill="#EDC27C"/>
<path d="M4.55709 30.485C18.6567 17.1182 44.6673 12.2378 62.6533 19.5843L78.4392 26.0322C87.707 29.8177 89.3304 38.4699 82.0652 45.3575C74.8001 52.2451 61.3975 54.7599 52.1297 50.9744L3.77716 31.2244L4.55709 30.485Z" fill="#EDC27C"/>
<path d="M56.9618 3.44428C70.709 1.54206 85.6391 10.5944 90.309 23.6633L90.8153 25.0801C95.2057 37.3664 88.2878 48.7762 75.3637 50.5646C62.4396 52.3529 48.4034 43.8426 44.0131 31.5562L35.051 6.47611L56.9618 3.44428Z" fill="#EDC27C"/>
<path d="M98.8925 7.54498C113.87 13.2892 116.861 27.1851 105.573 38.5824L100.514 43.6893C92.0198 52.2661 75.9965 55.7148 64.7254 51.3921C53.4544 47.0694 51.2038 36.6122 59.6985 28.0354L85.1956 2.29191L98.8925 7.54498Z" fill="#EDC27C"/>
<path d="M125.841 21.0396C132.324 37.0158 123.772 52.1365 106.739 54.8126L77.4583 59.4133C68.9422 60.7513 59.411 55.3604 56.1697 47.3723C52.9285 39.3842 57.2047 31.8238 65.7208 30.4858L125.841 21.0396Z" fill="#EDC27C"/>
<path d="M138.81 40.0109C133.265 56.1232 115.078 67.3602 98.1874 65.1093L67.8776 61.0702C59.4324 59.9448 54.8337 52.5017 57.6062 44.4455C60.3786 36.3894 69.4723 30.7709 77.9175 31.8963L138.81 40.0109Z" fill="#EDC27C"/>
<path d="M133.971 62.9401C119.19 74.5682 93.5283 77.2613 76.6547 68.9554L63.0799 62.2732C53.7035 57.6577 52.7611 48.678 60.975 42.2164C69.189 35.7548 83.4488 34.2583 92.8252 38.8738L136.952 60.5952L133.971 62.9401Z" fill="#EDC27C"/>
<path d="M103.756 83.5358C89.1667 87.8458 69.8599 81.5355 60.6327 69.4413L57.6224 65.4956C50.0577 55.5805 53.621 44.6783 65.5813 41.1448C77.5416 37.6113 93.3697 42.7847 100.934 52.6998L120.652 78.544L103.756 83.5358Z" fill="#EDC27C"/>
</g>
<ellipse cx="62.2871" cy="85.4848" rx="3.66395" ry="5.85511" fill="black"/>
<ellipse cx="86.7134" cy="85.4848" rx="3.66395" ry="5.85511" fill="black"/>
<ellipse cx="37.8607" cy="96.0239" rx="13.4345" ry="11.7102" fill="#C92E2E"/>
<ellipse cx="108.697" cy="96.0239" rx="13.4345" ry="11.7102" fill="#C92E2E"/>
<path d="M45.0239 91.3396C45.7894 91.3396 46.4359 90.6665 45.9983 90.0384C45.7299 89.6533 45.3484 89.3531 44.902 89.1758C44.4557 88.9986 43.9646 88.9522 43.4908 89.0426C42.7274 89.1881 42.7077 90.1319 43.2686 90.6697L43.4868 90.8789C43.7951 91.1745 44.2058 91.3396 44.633 91.3396H45.0239Z" fill="#FFD1A6"/>
<path d="M115.86 91.3396C116.626 91.3396 117.272 90.6665 116.835 90.0384C116.566 89.6533 116.185 89.3531 115.738 89.1758C115.292 88.9986 114.801 88.9522 114.327 89.0426C113.564 89.1881 113.544 90.1319 114.105 90.6697L114.323 90.8789C114.632 91.1745 115.042 91.3396 115.469 91.3396H115.86Z" fill="#FFD1A6"/>
<path d="M75.3268 91.3396C75.5448 91.3396 75.7251 91.1615 75.687 90.9469C75.6564 90.7745 75.6057 90.6056 75.5356 90.4433C75.4129 90.1592 75.233 89.901 75.0061 89.6835C74.7793 89.466 74.51 89.2935 74.2137 89.1758C74.0343 89.1046 73.847 89.0543 73.656 89.0256C73.4493 88.9947 73.2789 89.167 73.2789 89.376C73.2789 89.5851 73.4504 89.7503 73.6544 89.796C73.742 89.8155 73.828 89.842 73.9116 89.8752C74.1121 89.9548 74.2944 90.0716 74.4479 90.2188C74.6014 90.366 74.7232 90.5407 74.8062 90.733C74.8367 90.8034 74.8617 90.8757 74.8812 90.9493C74.937 91.16 75.1088 91.3396 75.3268 91.3396Z" fill="black"/>
<path d="M75.3268 91.3396C75.5448 91.3396 75.7251 91.1615 75.687 90.9469C75.6564 90.7745 75.6057 90.6056 75.5356 90.4433C75.4129 90.1592 75.233 89.901 75.0061 89.6835C74.7793 89.466 74.51 89.2935 74.2137 89.1758C74.0343 89.1046 73.847 89.0543 73.656 89.0256C73.4493 88.9947 73.2789 89.167 73.2789 89.376C73.2789 89.5851 73.4504 89.7503 73.6544 89.796C73.742 89.8155 73.828 89.842 73.9116 89.8752C74.1121 89.9548 74.2944 90.0716 74.4479 90.2188C74.6014 90.366 74.7232 90.5407 74.8062 90.733C74.8367 90.8034 74.8617 90.8757 74.8812 90.9493C74.937 91.16 75.1088 91.3396 75.3268 91.3396Z" fill="black"/>
<path d="M70.5928 99.4015C70.123 99.8383 70.1086 100.575 70.6794 100.883C70.9628 101.036 71.2686 101.161 71.5936 101.254C72.3181 101.463 73.1238 101.516 73.9646 101.41C74.8054 101.303 75.665 101.04 76.4941 100.634C77.0701 100.353 77.6236 100.007 78.1397 99.6059C78.5169 99.3129 78.5228 98.7757 78.1844 98.4411C77.8461 98.1066 77.2924 98.1034 76.9023 98.3804C76.6187 98.5818 76.3207 98.7594 76.0132 98.9098C75.452 99.1841 74.8703 99.3624 74.3012 99.4344C73.7321 99.5064 73.1869 99.4707 72.6966 99.3293C72.603 99.3024 72.5119 99.2717 72.4232 99.2373C71.8158 99.002 71.0627 98.9647 70.5928 99.4015Z" fill="black"/>
<path d="M70.5928 99.4015C70.123 99.8383 70.1086 100.575 70.6794 100.883C70.9628 101.036 71.2686 101.161 71.5936 101.254C72.3181 101.463 73.1238 101.516 73.9646 101.41C74.8054 101.303 75.665 101.04 76.4941 100.634C77.0701 100.353 77.6236 100.007 78.1397 99.6059C78.5169 99.3129 78.5228 98.7757 78.1844 98.4411C77.8461 98.1066 77.2924 98.1034 76.9023 98.3804C76.6187 98.5818 76.3207 98.7594 76.0132 98.9098C75.452 99.1841 74.8703 99.3624 74.3012 99.4344C73.7321 99.5064 73.1869 99.4707 72.6966 99.3293C72.603 99.3024 72.5119 99.2717 72.4232 99.2373C71.8158 99.002 71.0627 98.9647 70.5928 99.4015Z" fill="black"/>
<path d="M31.5107 87.6916C31.0409 88.1284 31.0264 88.8652 31.5973 89.1735C31.8807 89.3265 32.1865 89.4508 32.5115 89.5444C33.236 89.7533 34.0416 89.806 34.8825 89.6997C35.7233 89.5933 36.5828 89.3299 37.412 88.9245C37.988 88.6429 38.5415 88.2966 39.0575 87.8959C39.4347 87.603 39.4406 87.0657 39.1023 86.7312C38.7639 86.3966 38.2102 86.3934 37.8201 86.6705C37.5365 86.8719 37.2385 87.0495 36.931 87.1998C36.3698 87.4742 35.7881 87.6524 35.2191 87.7244C34.65 87.7964 34.1047 87.7607 33.6144 87.6194C33.5209 87.5924 33.4297 87.5617 33.3411 87.5274C32.7337 87.2921 31.9805 87.2547 31.5107 87.6916Z" fill="black"/>
<path d="M104.79 87.6916C104.32 88.1284 104.305 88.8652 104.876 89.1735C105.16 89.3265 105.465 89.4508 105.79 89.5444C106.515 89.7533 107.321 89.806 108.161 89.6997C109.002 89.5933 109.862 89.3299 110.691 88.9245C111.267 88.6429 111.82 88.2966 112.336 87.8959C112.714 87.603 112.72 87.0657 112.381 86.7312C112.043 86.3966 111.489 86.3934 111.099 86.6705C110.815 86.8719 110.517 87.0495 110.21 87.1998C109.649 87.4742 109.067 87.6524 108.498 87.7244C107.929 87.7964 107.384 87.7607 106.893 87.6194C106.8 87.5924 106.709 87.5617 106.62 87.5274C106.013 87.2921 105.259 87.2547 104.79 87.6916Z" fill="black"/>
<path d="M35.951 82.5768C36.5578 81.6835 37.9473 82.0178 38.0423 83.0799C38.0568 83.2414 38.0361 83.4047 37.9816 83.5588L36.5438 87.6247C36.4086 88.007 36.0021 88.2282 35.6084 88.1335C35.2147 88.0388 34.9652 87.6598 35.0343 87.2615L35.7688 83.0265C35.7966 82.866 35.8588 82.7126 35.951 82.5768Z" fill="#2B5427"/>
<path d="M109.23 82.5768C109.837 81.6835 111.226 82.0178 111.321 83.0799C111.336 83.2414 111.315 83.4047 111.261 83.5588L109.823 87.6247C109.688 88.007 109.281 88.2282 108.887 88.1335C108.494 88.0388 108.244 87.6598 108.313 87.2615L109.048 83.0265C109.076 82.866 109.138 82.7126 109.23 82.5768Z" fill="#2B5427"/>
<defs>
<filter id="filter0_f_42_117" x="30.1968" y="80.3137" width="29.9836" height="31.4204" filterUnits="userSpaceOnUse" color-interpolation-filters="sRGB">
<feFlood flood-opacity="0" result="BackgroundImageFix"/>
<feBlend mode="normal" in="SourceGraphic" in2="BackgroundImageFix" result="shape"/>
<feGaussianBlur stdDeviation="2" result="effect1_foregroundBlur_42_117"/>
</filter>
<filter id="filter1_f_42_117" x="86.3773" y="80.3137" width="29.9836" height="31.4204" filterUnits="userSpaceOnUse" color-interpolation-filters="sRGB">
<feFlood flood-opacity="0" result="BackgroundImageFix"/>
<feBlend mode="normal" in="SourceGraphic" in2="BackgroundImageFix" result="shape"/>
<feGaussianBlur stdDeviation="2" result="effect1_foregroundBlur_42_117"/>
</filter>
<filter id="filter2_i_42_117" x="3.77722" y="2.29187" width="135.033" height="88.5992" filterUnits="userSpaceOnUse" color-interpolation-filters="sRGB">
<feFlood flood-opacity="0" result="BackgroundImageFix"/>
<feBlend mode="normal" in="SourceGraphic" in2="BackgroundImageFix" result="shape"/>
<feColorMatrix in="SourceAlpha" type="matrix" values="0 0 0 0 0 0 0 0 0 0 0 0 0 0 0 0 0 0 127 0" result="hardAlpha"/>
<feOffset dy="6"/>
<feGaussianBlur stdDeviation="4.45"/>
<feComposite in2="hardAlpha" operator="arithmetic" k2="-1" k3="1"/>
<feColorMatrix type="matrix" values="0 0 0 0 0.853333 0 0 0 0 0.147911 0 0 0 0 0.147911 0 0 0 0.48 0"/>
<feBlend mode="normal" in2="shape" result="effect1_innerShadow_42_117"/>
</filter>
</defs>
</svg>
